<svg width="1441" height="829" viewBox="0 0 1441 829" fill="none" xmlns="http://www.w3.org/2000/svg">
<g clip-path="url(#clip0_32_7)">
<rect width="1440" height="828" transform="translate(0.175293 0.329102)" fill="white"/>
<g opacity="0.43">
<path d="M790.39 9.3884H790.242C744.269 9.35512 700.958 -4.4518 659.081 -17.8081C638.729 -24.2987 617.684 -31.007 596.473 -36.1124C531.047 -51.8611 462.881 -47.0672 402.744 -42.8359C286.639 -34.6697 168.816 -35.2746 54.8765 -35.8523C25.1425 -36.0035 -5.56239 -36.1548 -35.8983 -36.1548H-40.2143V-36.6115C-8.47499 -36.6115 23.73 -36.4602 54.8795 -36.309C168.807 -35.7343 286.624 -35.1264 402.699 -43.2896C462.868 -47.5239 531.071 -52.3178 596.57 -36.557C617.793 -31.4486 638.844 -24.7342 659.202 -18.2436C701.076 -4.89337 744.327 8.90446 790.242 8.93169H790.39C838.707 8.93169 884.238 -6.59618 928.278 -21.6159C944.271 -27.06 960.804 -32.7098 977.293 -37.5491C1042.44 -56.6761 1105.72 -54.5801 1175.75 -50.1643C1189.12 -49.3205 1202.69 -48.3738 1215.8 -47.4604C1276.7 -43.2079 1339.66 -38.8224 1402 -43.5436C1456.1 -47.6267 1510.74 -55.055 1563.59 -62.2231C1620.19 -69.9053 1678.72 -77.8447 1736.75 -81.7372L1736.78 -81.2866C1678.76 -77.394 1620.24 -69.4516 1563.65 -61.7754C1510.8 -54.6043 1456.15 -47.1882 1402.04 -43.09C1339.66 -38.3627 1276.68 -42.7573 1215.77 -47.0067C1202.65 -47.9141 1189.09 -48.8698 1175.72 -49.7106C1105.72 -54.1234 1042.5 -56.2224 977.423 -37.1135C960.943 -32.2743 944.411 -26.6366 928.426 -21.1864C884.362 -6.15459 838.783 9.38536 790.39 9.3884ZM795.139 47.9056C843.673 47.4247 887.946 27.4508 930.755 8.13623C948.902 -0.0511322 967.672 -8.51978 986.445 -15.3431C1058.92 -41.6836 1126.72 -34.2312 1201.49 -22.6382C1366.53 2.95222 1524.26 1.17078 1691.27 -0.713501L1711.01 -0.93428V-1.38795L1691.27 -1.16718C1524.29 0.717102 1366.57 2.50157 1201.56 -23.0858C1126.73 -34.6879 1058.87 -42.1403 986.294 -15.7695C967.506 -8.94017 948.73 -0.468506 930.57 7.72188C887.795 27.0183 843.57 46.971 795.139 47.4519H793.385C750.382 47.4519 710.951 31.8756 672.803 16.8045C656.51 10.3653 639.66 3.71136 622.69 -1.68436C592.163 -11.387 560.923 -15.9389 527.115 -15.6486C492.061 -15.328 457.028 -9.67513 430.422 -4.78448C299.333 19.3118 174.602 18.1867 42.5486 16.995C22.6291 16.8166 2.02007 16.6291 -18.462 16.5353V16.992C2.02611 17.0827 22.6291 17.2703 42.5486 17.4487C174.623 18.6404 299.375 19.7685 430.494 -4.32779C499.843 -17.0761 559.036 -21.4284 622.551 -1.24278C639.506 4.1469 656.347 10.8008 672.634 17.234C710.815 32.3233 750.279 47.9147 793.372 47.9147L795.139 47.9056ZM800.377 85.712C850.357 84.3812 895.256 59.0963 938.673 34.6461C954.004 26.0111 969.862 17.0827 985.396 9.58498C1062.69 -27.7164 1128.17 -17.9079 1199.7 -2.38907C1292.89 17.8298 1384.62 36.972 1481.98 48.9218C1511.98 52.6026 1541.9 58.7273 1570.85 64.6493C1607.22 72.0926 1644.84 79.79 1682.9 82.6905L1682.93 82.2399C1644.91 79.3394 1607.32 71.6541 1570.94 64.2047C1541.99 58.2797 1512.05 52.155 1482.03 48.4772C1384.69 36.5274 1292.98 17.3852 1199.79 -2.8367C1164.86 -10.4161 1127.51 -17.3241 1091.07 -16.6708C1053.96 -15.9903 1020.32 -7.78178 985.196 9.17061C969.644 16.6744 953.784 25.6058 938.446 34.2439C895.075 58.6668 850.227 83.9215 800.359 85.2462C758.684 86.3411 721.713 68.067 685.954 50.3675C669.258 42.1076 651.994 33.5664 634.519 27.1483C607.362 17.1674 580.135 12.797 551.251 13.7951C525.957 14.6631 499.438 19.5417 467.795 29.1203C454.488 33.149 441.385 37.341 428.704 41.3938C369.541 60.297 313.669 78.1417 248.461 77.0831C210.751 76.4782 172.43 75.1625 135.371 73.9013C92.7253 72.4495 48.643 70.9494 5.2442 70.4866V70.9403C48.646 71.4182 92.7313 72.9213 135.368 74.3731C172.427 75.6343 210.751 76.9379 248.467 77.5549C250.336 77.5852 252.184 77.6003 254.038 77.6003C316.93 77.6003 371.347 60.2123 428.855 41.8384C441.537 37.7856 454.651 33.5966 467.938 29.5679C533.942 9.56683 583.719 8.97705 634.377 27.5839C651.828 33.9958 669.08 42.531 685.763 50.7879C720.524 67.9853 756.425 85.7544 796.742 85.7544C797.945 85.7544 799.161 85.7332 800.371 85.703L800.377 85.712ZM1663.92 153.159C1630.54 149.015 1602.99 134.966 1576.33 121.383C1554.74 110.374 1532.41 99.0017 1506.88 92.7047C1488.22 88.1105 1468.4 86.0992 1449.23 84.1514C1431.04 82.3034 1412.23 80.3919 1394.28 76.2876C1359.24 68.2455 1324.09 58.2313 1290.1 48.5528C1268.02 42.2649 1245.18 35.7621 1222.59 29.8704C1178.52 18.3772 1141.91 9.47307 1105.51 8.27234C1064.87 6.92644 1029.06 15.6128 992.878 35.6079C977.275 44.2308 961.986 54.1663 945.799 64.6856C901.668 93.3761 856.031 123.035 804.212 124.166C803.204 124.19 802.203 124.202 801.209 124.202C760.599 124.202 728.318 105.988 694.183 86.7313C681.689 79.6842 668.778 72.3951 655.485 66.1374C623.549 51.1146 591.543 45.4557 557.62 48.8553C529.731 51.656 499.71 60.4392 460.286 77.3311L450.559 81.5201C392.657 106.412 337.898 129.952 272.741 129.952C271.245 129.952 269.743 129.94 268.235 129.915C228.199 129.25 187.538 127.426 148.216 125.663C106.647 123.797 63.6627 121.87 21.3256 121.305V121.758C63.6688 122.324 106.635 124.25 148.204 126.113C187.523 127.88 228.19 129.701 268.232 130.369C269.744 130.393 271.256 130.405 272.75 130.405C337.995 130.405 392.803 106.844 450.743 81.9344L460.47 77.7576C529.172 48.323 588.592 35.1482 655.291 66.5668C668.56 72.8155 681.471 80.1015 693.957 87.1335C728.134 106.418 760.475 124.659 801.203 124.659C802.201 124.659 803.209 124.649 804.227 124.628C856.183 123.479 901.871 93.7784 946.062 65.0667C962.237 54.5504 977.517 44.621 993.108 36.0041C1073.68 -8.51976 1142.66 9.4761 1222.48 30.315C1245.06 36.2068 1267.89 42.7155 1289.98 48.9944C1323.98 58.6729 1359.13 68.684 1394.17 76.705C1412.15 80.8184 1430.98 82.7329 1449.18 84.5688C1468.33 86.5135 1488.14 88.5278 1506.76 93.113C1532.25 99.3859 1554.55 110.758 1576.12 121.752C1602.81 135.362 1630.4 149.423 1663.86 153.576L1663.92 153.159ZM1662.57 200.523C1628.92 196.703 1602.33 182.206 1576.61 168.188C1555.74 156.812 1534.18 145.053 1508.69 138.747C1490.44 134.234 1471.04 132.483 1452.29 130.795C1433.54 129.108 1414.18 127.36 1395.7 122.871C1360.5 114.327 1325.34 103.351 1291.34 92.735C1269.23 85.8421 1246.4 78.7103 1223.76 72.3134C1138.32 48.1717 1071.82 34.4072 993.807 77.4188C977.965 86.1536 962.379 96.2797 945.878 107.002C900.979 136.173 854.555 166.337 802.258 167.389C801.336 167.407 800.422 167.416 799.506 167.416C758.79 167.416 726.422 149.169 692.196 129.882C679.66 122.814 666.697 115.507 653.365 109.237C621.12 94.0718 589.169 88.2798 555.718 91.5463C526.828 94.3591 496.162 103.862 459.212 121.447L456.166 122.895C395.271 151.888 342.514 177.007 274.447 177.007C273.056 177.007 271.658 176.996 270.252 176.974C230.676 176.369 190.562 173.71 151.773 171.13C108.849 168.275 64.4642 165.326 20.6208 165.166V165.62C64.4491 165.78 108.828 168.729 151.743 171.584C190.538 174.164 230.655 176.832 270.246 177.427C340.415 178.495 394.17 152.929 456.363 123.307L459.405 121.858C536.978 84.9377 593.101 81.3991 653.174 109.648C666.482 115.909 679.445 123.213 691.976 130.275C727.021 150.031 760.154 168.687 802.268 167.843C854.691 166.79 901.169 136.587 946.125 107.383C962.618 96.6638 978.185 86.5407 994.025 77.815C1071.88 34.8911 1138.3 48.6405 1223.63 72.7489C1246.26 79.1428 1269.1 86.2716 1291.19 93.1674C1325.2 103.783 1360.37 114.759 1395.58 123.31C1414.1 127.804 1433.49 129.552 1452.24 131.243C1470.98 132.934 1490.34 134.679 1508.57 139.185C1534 145.476 1555.55 157.224 1576.38 168.581C1602.13 182.624 1628.76 197.141 1662.5 200.97L1662.57 200.523ZM1669.78 242.385C1635.15 239.481 1603.45 228.472 1572.78 217.826C1548.41 209.357 1523.2 200.607 1496.53 195.892C1481.5 193.237 1466.61 191.295 1452.19 189.417C1423.71 185.706 1396.81 182.2 1368.41 173.62C1337.52 164.28 1306.81 152.714 1277.1 141.529C1255.36 133.345 1232.88 124.879 1210.5 117.333C1132.35 91.0503 1071.07 83.7431 989.158 124.166C972.158 132.553 955.42 142.286 937.696 152.596C890.635 179.953 841.973 208.247 788.539 209.759C787.26 209.796 785.993 209.814 784.722 209.814C744.409 209.814 708.619 191.745 673.983 174.255C657.284 165.822 640.017 157.103 622.511 150.558C566.86 129.746 517.394 132.383 462.152 159.108C445.592 167.12 430.597 175.313 416.097 183.238C368.464 209.248 327.325 231.72 263.184 228.511C222.689 226.476 181.948 221.023 142.548 215.748C97.2469 209.687 50.4093 203.408 3.68053 202.304V202.758C50.3851 203.868 97.2106 210.141 142.506 216.202C181.912 221.479 222.655 226.936 263.184 228.971C327.431 232.201 368.646 209.699 416.339 183.64C430.836 175.722 445.822 167.531 462.375 159.522C517.491 132.855 566.842 130.224 622.372 150.99C639.851 157.526 657.109 166.24 673.789 174.666C709.545 192.731 746.535 211.429 788.542 210.219C842.076 208.707 890.807 180.379 937.917 152.992C955.629 142.694 972.366 132.97 989.334 124.589C1071.13 84.2421 1132.31 91.5342 1210.35 117.781C1232.73 125.306 1255.2 133.769 1276.93 141.953C1306.64 153.144 1337.36 164.709 1368.28 174.055C1396.71 182.645 1423.62 186.153 1452.13 189.867C1466.53 191.745 1481.42 193.684 1496.44 196.34C1523.07 201.046 1548.26 209.793 1572.62 218.252C1603.31 228.911 1635.05 239.929 1669.73 242.836L1669.78 242.385ZM397.971 235.704C408.237 228.369 418.841 220.784 430.824 212.914C503.969 164.824 568.152 190.158 636.11 216.976C677.425 233.281 720.103 250.125 766.01 250.125C767.241 250.125 768.484 250.11 769.718 250.088C826.775 248.948 880.176 221.885 931.832 195.714C948.802 187.112 966.353 178.217 983.403 170.628C1069.14 132.474 1126.11 133.034 1217.83 172.96C1229.93 178.223 1241.83 183.525 1253.34 188.651C1290.5 205.195 1325.59 220.823 1362.15 233.163C1403.12 246.991 1440.31 254.785 1479.2 257.698C1509.8 259.991 1540.32 265.184 1569.85 270.207C1605.6 276.29 1642.58 282.581 1679.97 283.76V283.307C1642.61 282.127 1605.65 275.839 1569.91 269.76C1540.38 264.733 1509.85 259.537 1479.22 257.244C1394.17 250.893 1328.97 221.858 1253.49 188.237C1241.97 183.11 1230.06 177.805 1217.97 172.558C1171.44 152.294 1135.38 142.957 1101.04 142.246C1099.58 142.216 1098.13 142.201 1096.68 142.201C1061.77 142.201 1026.54 150.927 983.17 170.226C966.105 177.821 948.551 186.719 931.575 195.329C879.976 221.479 826.624 248.519 769.672 249.653C768.435 249.68 767.204 249.692 765.97 249.692C720.152 249.692 677.509 232.864 636.237 216.574C601.911 203.027 569.489 190.233 535.656 186.522C517.47 184.529 500.623 185.373 484.155 189.105C465.721 193.285 448.181 200.955 430.536 212.557C418.559 220.421 407.937 228.018 397.666 235.356C353.629 266.811 321.814 289.546 254.222 282.236C212.336 277.699 170.57 268.979 130.178 260.541C81.3531 250.327 30.8649 239.778 -20.2071 236.566L-20.2343 237.016C30.8044 240.231 81.2836 250.775 130.099 260.971C170.501 269.409 212.278 278.138 254.186 282.671C262.246 283.568 270.348 284.029 278.458 284.051C330.271 284.051 359.451 263.206 397.944 235.704H397.971ZM326.986 327.843C347.81 318.309 364.608 302.739 385.876 282.998C391.696 277.599 397.714 272.019 404.238 266.167C470.33 206.916 543.526 233.091 621.026 260.804C663.403 275.957 707.183 291.615 749.32 291.615C750.358 291.615 751.401 291.615 752.439 291.585C813.18 290.454 871.949 263.829 928.768 238.078C951.793 227.646 973.531 217.793 995.437 209.524C1079.96 177.603 1139.68 182.527 1223.65 228.321C1232.76 233.293 1241.77 238.302 1250.49 243.141C1284.96 262.292 1317.51 280.382 1351.92 293.841C1390.41 308.915 1426.19 316.222 1464.51 316.867C1497.59 317.414 1531.14 319.168 1563.58 320.868C1602.9 322.925 1643.48 325.045 1683.66 325.045C1685.43 325.045 1687.21 325.045 1688.98 325.045V324.591C1647.07 324.8 1604.65 322.574 1563.62 320.426C1531.17 318.73 1497.61 316.972 1464.52 316.425C1380.81 315.034 1320.53 281.537 1250.73 242.751C1242.02 237.912 1233.01 232.9 1223.89 227.931C1180.6 204.318 1145.86 192.426 1111.24 189.362C1076.04 186.244 1039.21 192.523 995.304 209.103C973.391 217.378 951.636 227.235 928.604 237.67C871.813 263.402 813.086 289.994 752.439 291.137C751.401 291.155 750.367 291.167 749.329 291.167C707.273 291.167 663.524 275.521 621.187 260.384C583.985 247.076 545.525 233.323 508.998 230.647C489.324 229.198 471.733 230.986 455.195 236.091C436.646 241.816 419.884 251.546 403.945 265.837C397.418 271.689 391.399 277.273 385.577 282.671C343.11 322.048 317.486 345.823 245.608 334.472C202.875 327.716 160.595 316.38 119.719 305.407C67.649 291.421 13.8066 276.985 -41.4422 271.928L-41.4846 272.382C13.7159 277.433 67.5371 291.878 119.589 305.845C160.48 316.821 202.763 328.169 245.527 334.92C257.434 336.801 268.253 337.751 278.255 337.751C296.765 337.751 312.45 334.493 326.986 327.843ZM324.494 376.855C344.014 367.137 359.143 350.705 378.297 329.899C383.439 324.301 388.783 318.509 394.611 312.396C454.312 249.774 536.845 277.811 616.668 304.902C659.371 319.401 703.496 334.37 742.512 334.37C743.419 334.37 744.354 334.369 745.271 334.345C806.853 333.205 867.552 307.252 926.255 282.148C950.321 271.865 973.05 262.138 995.794 254.063C1085.58 222.166 1144.92 227.653 1222.57 275.007C1231.53 280.473 1240.35 285.965 1248.88 291.279C1314.95 332.431 1372.01 367.972 1455.64 367.972H1692.76V367.515H1455.64C1372.14 367.515 1315.13 332.007 1249.12 290.892C1240.59 285.581 1231.78 280.089 1222.81 274.62C1182.14 249.819 1146.78 236.914 1111.54 234.013C1077.5 231.234 1041.74 237.283 995.664 253.645C972.908 261.73 950.172 271.451 926.1 281.743C867.425 306.825 806.78 332.763 745.286 333.901C744.378 333.919 743.471 333.928 742.536 333.928C703.581 333.928 659.489 318.957 616.828 304.472C577.059 290.968 535.935 277.004 497.868 274.466C477.341 273.102 459.402 275.071 443.031 280.539C424.623 286.67 408.684 296.99 394.294 312.082C388.462 318.2 383.13 323.992 377.961 329.594C340.297 370.509 317.565 395.226 244.517 382.958C200.452 375.572 157.193 362.579 115.37 350.012C62.0295 333.982 6.87442 317.423 -50.3736 312.375L-50.4129 312.829C6.77763 317.871 61.9115 334.433 115.228 350.448C157.075 363.018 200.347 376.014 244.438 383.415C257.126 385.532 268.474 386.615 278.79 386.615C296.614 386.609 311.343 383.397 324.494 376.855ZM380.239 374.335C386.203 370.186 392.373 365.894 398.861 361.496C470.279 313.08 554.659 331.142 636.258 348.606C680.416 358.061 726.086 367.833 768.931 366.804C826.769 365.41 884.298 343.873 939.937 323.043C962.939 314.432 984.67 306.296 1006.51 299.451C1083.54 275.331 1144.06 270.961 1225.49 320.018C1232.11 324.004 1238.66 327.994 1244.98 331.85C1309.41 371.102 1365.03 405.004 1447.07 405.004H1684.19V404.538H1447.07C1365.16 404.538 1309.58 370.664 1245.22 331.451C1238.89 327.592 1232.34 323.587 1225.72 319.616C1187.67 296.696 1153.55 284.792 1118.35 282.157C1085.91 279.738 1051.36 284.925 1006.36 299.019C984.501 305.863 962.766 313.999 939.756 322.61C884.153 343.425 826.663 364.953 768.901 366.339C766.804 366.391 764.704 366.416 762.601 366.414C721.655 366.414 678.314 357.138 636.331 348.152C595.542 339.423 553.365 330.395 513.233 329.784C491.638 329.464 472.338 331.526 454.279 336.118C434.383 341.101 415.524 349.563 398.573 361.112C392.083 365.513 385.913 369.805 379.948 373.954C333.159 406.507 299.354 430.032 231.535 419.549C190.1 413.149 149.057 402.518 109.36 392.237C58.8507 379.156 6.63548 365.622 -46.8168 360.716L-46.8561 361.17C6.55685 366.082 58.76 379.601 109.245 392.676C148.954 402.959 190 413.594 231.469 420C242.623 421.724 252.858 422.528 262.385 422.528C310.959 422.537 341.056 401.598 380.239 374.335ZM376.128 423.39C387.842 419.836 399.956 416.158 412.302 412.656C504.655 386.443 607.755 386.261 707.464 386.086C747.309 386.013 784.943 385.947 822.181 384.331C868.051 382.347 915.336 370.455 961.055 358.956C1048.9 336.877 1139.74 314.018 1223.71 360.946C1232.19 365.688 1240.34 370.352 1248.23 374.859C1305.11 407.396 1350.04 433.099 1423.75 433.099H1664.95V432.666H1423.75C1350.16 432.666 1305.28 406.991 1248.46 374.487C1240.57 369.974 1232.43 365.31 1223.93 360.574C1204 349.379 1182.38 341.503 1159.92 337.255C1139.56 333.344 1118.14 332.113 1094.43 333.486C1050.39 336.045 1004.92 347.481 960.946 358.538C915.245 370.032 867.987 381.918 822.166 383.905C784.934 385.517 747.303 385.584 707.461 385.653C607.725 385.832 504.592 386.013 412.178 412.245C399.829 415.75 387.712 419.425 375.995 422.979C321.817 439.42 270.639 454.957 209.786 449.413C171.94 445.971 134.046 439.239 97.4042 432.727C53.1253 424.863 7.34322 416.724 -38.699 414.338L-38.7232 414.788C7.28877 417.178 53.0588 425.308 97.3195 433.174C133.974 439.686 171.877 446.422 209.741 449.867C218.333 450.647 226.723 451.01 234.968 451.01C285.181 450.983 329.548 437.524 376.128 423.39ZM430.654 467.593C447.468 466.61 464.393 465.936 480.755 465.283C532.475 463.22 581.342 461.269 631.939 450.387C657.094 444.979 682.733 438.407 707.531 432.052C763.986 417.586 822.365 402.624 880.974 399.654C907.926 398.287 937.055 394.884 967.896 391.276C1054.45 381.162 1152.55 369.693 1224.78 403.758C1237.13 409.583 1248.12 415.118 1258.75 420.468C1303.73 443.119 1336.23 459.485 1398.2 459.485H1643.61V459.028H1398.2C1336.34 459.028 1303.88 442.695 1258.95 420.063C1248.32 414.71 1237.33 409.175 1224.97 403.347C1192.64 388.1 1152.49 380.608 1102.21 380.439H1100.42C1056.73 380.439 1011.55 385.72 967.844 390.828C937.01 394.433 907.887 397.839 880.95 399.203C822.296 402.176 763.901 417.144 707.416 431.617C682.615 437.968 656.988 444.54 631.842 449.948C581.281 460.821 532.444 462.769 480.737 464.832C464.372 465.485 447.446 466.16 430.627 467.143C328.964 473.086 227.111 471.604 128.608 470.167C76.8708 469.411 23.3792 468.655 -29.7404 468.921V469.375C23.3701 469.072 76.8617 469.862 128.599 470.621C172.433 471.259 216.915 471.909 261.775 471.909C317.716 471.903 374.22 470.893 430.654 467.593ZM671.309 499.136C693.811 491.608 716.882 482.677 739.194 474.033C797.958 451.285 858.717 427.757 920.968 424.512C957.785 422.601 995.873 425.722 1032.71 428.78C1048.29 430.065 1064.39 431.396 1080.06 432.309C1092.03 433.005 1104.38 433.274 1116.33 433.534C1156.43 434.405 1197.89 435.307 1234.79 452.265L1242.03 455.592C1291.98 478.603 1319.53 491.299 1378.68 491.299H1379.03C1434.53 491.248 1490.96 491.266 1545.55 491.284C1573.3 491.284 1601.05 491.289 1628.81 491.299V490.846C1601.06 490.846 1573.3 490.841 1545.55 490.831C1490.97 490.813 1434.55 490.797 1379.03 490.846H1378.68C1319.64 490.846 1292.11 478.164 1242.22 455.181C1239.86 454.092 1237.45 452.983 1234.98 451.854C1197.99 434.856 1156.49 433.955 1116.34 433.081C1104.4 432.82 1092.05 432.551 1080.08 431.856C1064.43 430.948 1048.32 429.615 1032.75 428.329C995.897 425.283 957.776 422.132 920.946 424.058C858.614 427.31 797.818 450.847 739.025 473.609C716.719 482.244 693.657 491.175 671.158 498.697C581.103 528.819 506.177 524.627 411.316 519.303L407.94 519.113C265.135 511.122 128.046 514.927 -23.534 520.323L-23.5189 520.776C128.049 515.393 265.126 511.591 407.913 519.585L411.291 519.772C446.203 521.729 478.417 523.535 509.682 523.535C563.412 523.526 614.33 518.193 671.309 499.136ZM670.979 544.909C693.125 537.16 715.76 528.005 737.652 519.149C796.004 495.54 856.34 471.132 918.872 468.011C955.804 466.172 993.928 469.586 1030.78 472.895C1046.18 474.274 1062.09 475.702 1077.6 476.712C1089.61 477.496 1101.88 477.922 1113.73 478.327C1153.27 479.691 1194.16 481.101 1231.99 496.096C1236.99 498.077 1241.78 499.998 1246.41 501.843C1290.88 519.688 1320.29 531.483 1374.31 531.483C1375.82 531.483 1377.29 531.483 1378.78 531.483C1415.86 531.483 1453.48 531.861 1489.9 532.224C1534.09 532.672 1579.8 533.132 1624.75 532.914V532.475C1579.79 532.69 1534.09 532.227 1489.9 531.789C1453.48 531.423 1415.87 531.048 1378.78 531.048H1374.33C1320.4 531.048 1291.02 519.252 1246.6 501.444C1241.97 499.587 1237.18 497.669 1232.18 495.697C1194.26 480.674 1153.34 479.262 1113.76 477.898C1101.91 477.487 1089.64 477.066 1077.63 476.283C1062.14 475.276 1046.22 473.848 1030.83 472.466C993.958 469.16 955.84 465.736 918.857 467.584C856.249 470.706 795.877 495.132 737.491 518.75C715.606 527.606 692.977 536.761 670.837 544.504C578.719 576.733 498.869 570.974 406.407 564.299C387.809 562.959 368.851 561.387 350.517 559.868C288.514 554.727 224.395 549.431 161.421 551.829C131.748 552.966 101.717 555.543 72.6758 558.032C41.2208 560.73 8.66795 563.522 -23.5038 564.49L-23.4887 564.943C8.7103 563.976 41.2541 561.184 72.7302 558.483C101.766 555.994 131.79 553.417 161.454 552.283C224.364 549.863 288.484 555.186 350.487 560.322C368.824 561.834 387.785 563.41 406.383 564.753C443.418 567.424 478.414 569.952 513.006 569.949C564.804 569.925 615.685 564.254 670.979 544.909ZM641.391 589.406C660.784 583.396 680.373 576.567 699.319 569.961C752.49 551.421 807.473 532.248 864.887 528.828C886.785 527.527 909.435 525.597 933.422 523.55C1023.34 515.886 1125.26 507.199 1206.9 532.89C1328.86 571.271 1460.05 571.906 1586.94 572.535C1595.62 572.577 1604.3 572.624 1612.96 572.674V572.22C1604.29 572.166 1595.61 572.12 1586.94 572.081C1460.09 571.476 1328.92 570.82 1207.03 532.46C1125.31 506.752 1023.34 515.435 933.38 523.102C909.396 525.147 886.748 527.076 864.854 528.377C807.388 531.795 752.366 550.976 699.168 569.51C680.225 576.116 660.639 582.945 641.251 588.952C562.496 613.348 487.606 610.626 408.309 607.746C401.938 607.514 395.518 607.285 389.049 607.057C234.194 601.755 97.2016 599.886 -29.7434 601.346V601.8C97.1804 600.33 234.17 602.205 389.028 607.513C395.498 607.735 401.917 607.963 408.285 608.197C433.754 609.125 458.764 610.036 483.595 610.033C536.134 610.054 587.866 605.986 641.391 589.406ZM299.421 651.753C320.686 651.069 342.671 650.368 364.224 649.938C380.717 649.615 397.494 649.56 413.726 649.509C474.407 649.309 537.157 649.107 597.635 634.773C611.654 631.446 625.711 627.902 639.31 624.469C689.181 611.887 736.288 600.004 787.583 596.604C832.044 593.661 877.151 585.646 920.783 577.9C1002.71 563.346 1087.43 548.306 1171.12 566.241C1324.34 599.09 1486.96 607.241 1595.95 610.508V610.054C1486.98 606.781 1324.38 598.627 1171.2 565.796C1087.42 547.831 1002.66 562.89 920.695 577.447C877.073 585.196 831.968 593.204 787.541 596.147C736.206 599.55 689.081 611.442 639.186 624.027C625.575 627.46 611.532 631.005 597.52 634.311C537.09 648.635 474.368 648.828 413.714 649.034C397.482 649.088 380.701 649.143 364.203 649.466C342.65 649.89 320.65 650.595 299.393 651.281C245.188 653.02 189.144 654.817 134.334 652.161C106.786 650.828 79.1422 647.25 52.4115 643.786C22.7198 639.942 -7.98503 635.968 -38.7111 635.046L-38.7262 635.502C-8.0183 636.41 22.6715 640.396 52.351 644.237C79.0938 647.7 106.744 651.281 134.315 652.615C154.383 653.586 174.614 653.958 194.866 653.958C229.941 653.976 265.056 652.851 299.421 651.753ZM284.815 697.635C303.567 695.787 322.988 693.882 341.791 692.493C393.592 688.64 446.222 684.025 497.118 679.551C569.404 673.2 644.176 666.643 717.681 662.191C777.615 658.561 834.914 643.895 890.329 629.719C969.178 609.54 1050.71 588.683 1138.72 600.684C1206.29 609.915 1269.52 614.691 1322.47 618.148C1363.93 620.849 1405.61 627.139 1445.91 633.225C1489.84 639.855 1535.26 646.711 1580.59 648.952L1580.61 648.499C1535.31 646.254 1489.9 639.401 1445.98 632.771C1405.66 626.689 1363.98 620.398 1322.5 617.688C1269.57 614.237 1206.33 609.458 1138.78 600.233C1099.25 594.832 1057.67 595.576 1011.68 602.502C970.624 608.684 929.748 619.137 890.214 629.26C834.82 643.436 777.545 658.092 717.654 661.719C644.158 666.171 569.38 672.734 497.079 679.083C446.182 683.553 393.556 688.156 341.758 692.018C322.945 693.419 303.537 695.327 284.77 697.16C230.329 702.516 174.042 708.048 119.934 702.68C92.816 699.979 66.5723 693.186 41.1936 686.617C12.9749 679.312 -16.2026 671.757 -46.8017 669.758L-46.8289 670.212C-16.2813 672.208 12.8841 679.757 41.0787 687.058C66.4846 693.627 92.7374 700.427 119.891 703.127C135.528 704.685 151.346 705.329 167.237 705.329C206.408 705.35 246.083 701.449 284.815 697.635ZM280.581 742.02C297.403 739.791 314.803 737.483 331.608 735.668C407.087 727.472 484.309 724.665 558.985 721.952C600.614 720.44 643.671 718.876 685.905 716.396C745.73 712.882 803.505 693.987 859.376 675.716C879.438 669.153 900.183 662.369 920.68 656.414C984.428 637.898 1047.07 633.077 1123.78 640.78C1170.46 645.471 1217.6 648.535 1263.18 651.493C1279.92 652.579 1297.23 653.704 1314.33 654.899C1355.98 657.802 1397.61 665.206 1437.88 672.368C1482.1 680.232 1527.82 688.368 1573.78 690.582L1573.8 690.125C1527.88 687.917 1482.15 679.787 1437.95 671.924C1397.68 664.758 1356.03 657.351 1314.36 654.445C1297.26 653.253 1279.95 652.128 1263.21 651.042C1217.63 648.081 1170.5 645.017 1123.83 640.332C1086.28 636.555 1052.75 635.775 1021.3 637.961C987.093 640.332 954.153 646.224 920.58 655.975C900.074 661.937 879.323 668.721 859.258 675.284C803.417 693.546 745.667 712.431 685.902 715.942C643.662 718.422 600.611 719.989 558.994 721.501C484.306 724.223 407.081 727.021 331.58 735.221C314.773 737.035 297.373 739.346 280.545 741.572C225.278 748.888 168.132 756.447 113.365 750.222C86.271 747.137 61.0979 738.665 36.7566 730.475C9.3394 721.247 -19.0094 711.723 -50.3494 709.739L-50.3766 710.193C-19.0941 712.162 9.22749 721.686 36.6175 730.905C60.983 739.104 86.1802 747.585 113.319 750.67C127.681 752.259 142.121 753.033 156.57 752.987C197.755 752.978 239.68 747.431 280.569 742.02H280.581ZM300.307 782.624C313.678 780.367 327.5 778.036 340.959 775.97C417.48 764.271 496.317 761.851 572.559 759.513C609.86 758.37 648.429 757.185 686.214 754.931C743.102 751.535 797.48 733.881 850.067 716.822C868.344 710.888 887.244 704.752 906.021 699.28C971.746 680.144 1033.21 679.016 1111.1 683.423C1139.74 685.038 1169 686.121 1197.3 687.173C1237.27 688.655 1278.6 690.198 1318.94 693.246C1361.01 696.428 1402.58 705.744 1442.78 714.751C1487.26 724.732 1533.26 735.015 1580.19 737.099L1580.21 736.642C1533.33 734.579 1487.35 724.272 1442.87 714.309C1402.65 705.299 1361.08 695.981 1318.98 692.79C1278.62 689.735 1237.29 688.201 1197.31 686.716C1169.02 685.67 1139.77 684.584 1111.14 682.966C1033.21 678.571 971.692 679.687 905.909 698.842C887.129 704.31 868.226 710.447 849.955 716.384C797.395 733.448 743.044 751.093 686.214 754.493C648.435 756.749 609.869 757.929 572.571 759.075C496.317 761.416 417.461 763.832 340.92 775.537C327.455 777.594 313.63 779.929 300.258 782.191C243.516 791.752 184.876 801.657 127.58 795.608C96.5604 792.339 67.0411 783.056 38.4927 774.08C6.73529 764.099 -26.1079 753.764 -61.2528 751.61L-61.28 752.067C-26.1956 754.215 6.62036 764.534 38.3536 774.512C66.9231 783.495 96.4666 792.786 127.534 796.059C139.733 797.318 151.989 797.934 164.252 797.907C209.741 797.913 255.623 790.164 300.295 782.624H300.307ZM336.172 818.685C353.559 814.278 371.54 809.72 389.17 805.843C455.244 791.307 524.496 790.188 591.468 789.111C622.56 788.609 654.707 788.092 686.017 786.232C735.64 783.277 780.316 769.104 827.613 754.094C841.756 749.605 856.376 744.966 871.009 740.704C932.406 722.814 992.098 722.986 1055.34 723.162C1061.86 723.18 1068.43 723.192 1075 723.198C1100.35 723.198 1126.81 722.415 1152.39 721.668C1213.03 719.901 1275.73 718.069 1334.64 725.718C1376.13 731.107 1416.44 743.411 1455.42 755.306C1500.33 769.013 1546.76 783.189 1595.31 786.894L1595.35 786.438C1546.85 782.742 1500.43 768.575 1455.55 754.874C1416.55 742.969 1376.23 730.663 1334.7 725.27C1275.75 717.609 1213.03 719.439 1152.38 721.217C1126.79 721.964 1100.35 722.729 1075 722.744C1068.43 722.744 1061.86 722.726 1055.34 722.708C992.068 722.56 932.334 722.366 870.879 740.275C856.24 744.539 841.616 749.179 827.474 753.667C780.204 768.666 735.556 782.836 685.99 785.781C654.689 787.648 622.545 788.165 591.459 788.664C524.463 789.744 455.186 790.857 389.07 805.407C371.434 809.288 353.448 813.846 336.057 818.253C276.549 833.324 215.006 848.912 152.704 841.581C114.665 837.089 77.5513 826.788 41.6563 816.825C0.268875 805.332 -42.528 793.464 -87.0065 790.415L-87.0368 790.869C-42.6036 793.911 0.172089 805.783 41.5354 817.267C77.4454 827.232 114.574 837.531 152.65 842.028C163.565 843.3 174.546 843.928 185.536 843.91C236.671 843.897 287.111 831.119 336.172 818.685ZM370.222 853.358C379.138 850.225 388.369 846.985 397.551 843.849C468.769 819.565 543.193 818.443 615.168 817.382C638.52 817.028 662.671 816.668 686.51 815.536C727.214 813.604 762.229 802.676 799.297 791.108C813.156 786.779 827.486 782.309 842.267 778.29C895.005 763.956 951.545 763.47 1006.22 763.025C1026.1 762.859 1046.66 762.686 1066.53 761.833C1092.05 760.738 1117.89 758.546 1145.24 756.223C1216.28 750.198 1289.74 743.958 1356.05 758.243C1394.96 766.621 1432.13 781.139 1468.08 795.179C1513.87 813.063 1561.22 831.551 1612.36 837.377L1612.42 836.929C1561.32 831.11 1514.01 812.627 1468.24 794.755C1432.28 780.712 1395.09 766.186 1356.15 757.799C1289.75 743.502 1216.27 749.738 1145.19 755.772C1117.84 758.092 1092.01 760.288 1066.5 761.38C1046.63 762.233 1026.08 762.405 1006.21 762.571C951.5 763.028 894.93 763.5 842.137 777.851C827.347 781.871 813.011 786.347 799.149 790.675C762.111 802.235 727.123 813.153 686.48 815.083C662.644 816.217 638.499 816.577 615.15 816.925C543.139 818.002 468.679 819.115 397.385 843.417C388.184 846.553 378.965 849.795 370.049 852.932C305.975 875.458 245.463 896.73 174.968 886.806C131.678 880.715 88.7843 869.969 47.3061 859.586C-5.50795 846.356 -60.1186 832.667 -116.018 828.5L-116.048 828.956C-60.2033 833.127 -5.61078 846.801 47.1821 860.024C88.6755 870.416 131.566 881.162 174.892 887.245C186.789 888.919 198.788 889.757 210.802 889.752C266.638 889.773 317.22 871.992 370.222 853.358ZM300.676 925.714C334.206 916.722 367.009 902.122 401.737 886.676L408.215 883.794C481.959 851.029 556.544 850.449 635.508 849.838C652.273 849.708 669.609 849.574 686.81 849.106C721.664 848.153 750.929 839.231 781.928 829.782C792.281 826.624 802.987 823.361 814.075 820.352C862.743 807.141 915.932 806.182 967.376 805.25C989.455 804.848 1012.29 804.434 1034.06 803.03C1062.71 801.173 1091.91 797.988 1122.81 794.613C1200.29 786.144 1280.41 777.406 1352.86 790.627C1398.41 798.935 1440.65 818.362 1481.49 837.15C1526.54 857.868 1573.14 879.293 1624.48 886.023L1624.54 885.575C1573.25 878.855 1526.7 857.447 1481.68 836.738C1440.81 817.938 1398.54 798.496 1352.94 790.176C1280.43 776.95 1200.27 785.7 1122.78 794.162C1091.88 797.535 1062.69 800.722 1034.05 802.573C1012.27 803.983 989.458 804.388 967.382 804.796C915.914 805.725 862.691 806.687 813.972 819.919C802.878 822.944 792.166 826.195 781.81 829.353C750.851 838.792 721.607 847.705 686.813 848.655C669.618 849.124 652.282 849.26 635.52 849.39C556.504 849.995 481.875 850.579 408.049 883.382L401.568 886.265C332.215 917.115 272.318 943.779 192.528 931.935C145.382 924.918 98.3721 913.77 52.9227 902.978C-8.50525 888.412 -72.0201 873.338 -136.536 868.372L-136.572 868.826C-72.0896 873.798 -8.59294 888.857 52.8168 903.423C98.2874 914.205 145.306 925.36 192.456 932.361C205.248 934.289 218.166 935.267 231.103 935.286C254.017 935.292 276.764 932.125 300.676 925.714ZM400.742 931.79C403.968 930.423 407.217 929.047 410.49 927.661C486.463 895.544 563.53 894.482 645.138 893.354C659.807 893.149 674.975 892.94 689.982 892.535C724.356 891.606 753.428 882.998 784.205 873.883C794.168 870.934 804.469 867.882 815.098 865.057C865.126 851.764 919.694 850.857 972.466 849.983C993.133 849.641 1014.51 849.281 1034.92 848.168C1064 846.571 1093.63 843.631 1125.01 840.495C1202.02 832.831 1281.66 824.9 1353.53 837.936C1399.45 846.26 1442.52 865.157 1484.17 883.431C1529.28 903.223 1575.92 923.687 1626.53 930.946L1626.59 930.495C1576.05 923.236 1529.43 902.794 1484.35 883.01C1442.68 864.724 1399.58 845.809 1353.61 837.479C1281.68 824.447 1202.01 832.371 1124.97 840.038C1093.59 843.162 1063.96 846.114 1034.9 847.708C1014.49 848.83 993.12 849.184 972.457 849.523C919.658 850.4 865.062 851.304 814.979 864.615C804.345 867.44 794.041 870.492 784.078 873.444C753.328 882.545 724.283 891.146 689.97 892.075C674.969 892.483 659.801 892.68 645.132 892.891C605.895 893.436 565.324 893.999 526.159 898.423C482.358 903.375 444.464 912.799 410.321 927.235L400.57 931.363C332.569 960.202 273.842 985.118 196.254 973.731C148.627 966.744 100.916 956.207 54.7767 946.017C-7.67349 932.219 -72.2529 917.956 -137.389 912.348L-137.428 912.799C-72.3195 918.406 -7.75819 932.667 54.6769 946.456C100.828 956.651 148.546 967.195 196.188 974.178C208.793 976.047 221.518 976.991 234.26 977.003C294.119 977.006 344.235 955.756 400.742 931.79ZM382.41 981.446C392.267 979.157 402.463 976.792 412.622 974.526C498.776 955.308 590.243 951.074 678.698 946.973C689.601 946.468 700.874 945.948 711.895 945.409C750.503 943.516 784.323 934.485 820.133 924.924C832.709 921.57 845.712 918.095 859.032 914.943C918.917 900.683 982.25 903.148 1043.5 905.537C1054.77 905.976 1066.42 906.444 1077.79 906.765C1107.53 907.642 1138.51 907.37 1168.48 907.11C1232.62 906.553 1298.96 905.97 1361.02 916.28C1400.52 922.84 1439.63 933.332 1477.45 943.477C1525.65 956.406 1575.49 969.79 1626.54 975.104L1626.58 974.656C1575.57 969.327 1525.75 955.962 1477.57 943.038C1439.73 932.891 1400.61 922.396 1361.1 915.817C1298.99 905.498 1232.63 906.075 1168.48 906.641C1138.51 906.904 1107.53 907.179 1077.8 906.296C1066.44 905.964 1054.79 905.507 1043.52 905.068C982.244 902.685 918.881 900.211 858.926 914.484C845.6 917.656 832.594 921.138 820.015 924.489C784.232 934.04 750.43 943.062 711.874 944.953C700.852 945.494 689.58 946.017 678.677 946.522C590.204 950.617 498.718 954.858 412.519 974.082C402.357 976.347 392.161 978.712 382.301 981.002C319.996 995.465 261.133 1009.13 195.852 1002.48C149.665 997.755 103.099 990.32 58.0643 983.128C0.646942 973.964 -58.7213 964.485 -117.908 960.559L-117.938 961.016C-58.7727 964.948 0.586456 974.414 57.9918 983.576C103.03 990.765 149.604 998.199 195.813 1002.91C207.309 1004.08 218.858 1004.66 230.413 1004.65C282.408 1004.65 331.248 993.321 382.413 981.446H382.41ZM611.735 1013.39C654.949 1009.02 699.637 1004.5 744.472 1002.15C790.826 999.729 833.22 989.446 878.104 978.594C888.69 976.032 899.657 973.38 910.578 970.864C974.744 956.074 1035.32 956.473 1113.15 972.182C1263.24 1002.48 1426.38 1017.44 1626.56 1019.24V1018.79C1426.4 1016.97 1263.29 1002.03 1113.23 971.741C1035.34 956.013 974.707 955.617 910.473 970.419C899.545 972.935 888.587 975.588 877.989 978.156C833.127 989.014 790.753 999.27 744.442 1001.7C699.597 1004.05 654.916 1008.57 611.684 1012.94C547.243 1019.46 480.598 1026.19 412.955 1025.73C326 1025.13 237.76 1021.57 152.426 1018.14C73.2746 1014.95 -8.57178 1011.65 -89.16 1010.71V1011.17C-8.58084 1012.1 73.2565 1015.4 152.414 1018.59C237.748 1022.03 325.994 1025.59 412.955 1026.19C415.205 1026.19 417.443 1026.22 419.694 1026.22C485.056 1026.21 549.43 1019.7 611.738 1013.39H611.735ZM1343.59 1092.62C1386.4 1088.99 1429.79 1083.93 1471.72 1079.05C1522.39 1073.16 1574.79 1067.08 1626.58 1063.41L1626.55 1062.95C1574.75 1066.63 1522.35 1072.72 1471.68 1078.61C1429.73 1083.48 1386.36 1088.52 1343.55 1092.16C1279.71 1097.58 1237.14 1076.11 1187.84 1051.24C1177.72 1046.13 1167.25 1040.85 1156.21 1035.59C1119.17 1017.95 1077.88 1010.71 1030.03 1013.46C987.359 1015.9 943.476 1025.89 901.036 1035.54C859.349 1045.02 816.244 1054.83 774.23 1057.52C732.093 1060.22 691.398 1066.49 652.04 1072.55C570.248 1085.15 492.99 1097.05 406.706 1078.52C394.69 1075.94 382.58 1073.21 370.872 1070.57C308.679 1056.54 249.946 1043.32 186.189 1046.37C148.573 1048.19 110.361 1050.55 73.4107 1052.83C28.7901 1055.58 -17.352 1058.43 -62.7862 1060.36L-62.765 1060.81C-17.3278 1058.88 28.8143 1056.04 73.438 1053.28C110.388 1051 148.597 1048.65 186.207 1046.82C249.894 1043.72 308.606 1056.98 370.769 1071C382.483 1073.64 394.593 1076.37 406.612 1078.95C492.971 1097.5 570.266 1085.61 652.106 1072.99C691.452 1066.94 732.135 1060.66 774.254 1057.96C816.295 1055.27 859.425 1045.46 901.13 1035.97C985.919 1016.68 1073.59 996.726 1156.01 1035.98C1167.05 1041.24 1177.51 1046.52 1187.63 1051.62C1231.76 1073.89 1270.5 1093.44 1323.96 1093.44C1330.28 1093.45 1336.83 1093.17 1343.59 1092.62ZM-13.7951 1108.29C-21.3927 1073.24 -38.0608 1042.03 -54.1815 1011.85C-69.2678 983.597 -84.8682 954.395 -92.7955 922.335C-103.784 877.896 -81.1511 842.065 -59.2596 807.404C-53.1441 797.725 -46.8198 787.711 -41.3001 777.639C-25.9748 749.669 -21.6952 722.409 -17.1614 693.558C-15.4314 682.564 -13.6469 671.176 -11.1971 659.529C-8.73511 647.812 -5.81645 636.343 -2.99458 625.252C4.01625 597.69 10.6399 571.655 10.7791 542.26C10.9242 510.287 5.81584 476.528 0.873779 443.884C-8.89842 379.326 -19.0064 312.593 9.9201 253.766C15.9177 241.568 22.6231 230.438 29.0986 219.674C38.7074 203.71 47.781 188.654 53.4005 172.089C59.7218 153.504 60.8469 135.623 56.9422 115.77C50.2006 81.5503 36.1517 49.315 22.5535 18.1413C7.96021 -15.3037 -7.12607 -49.8891 -13.3142 -87.1935L-13.7618 -87.1209C-7.56764 -49.7439 7.53377 -15.1495 22.1361 18.3228C35.7253 49.4753 49.7772 81.6834 56.4976 115.857C65.0207 159.129 48.1863 187.076 28.7084 219.438C22.2238 230.211 15.5215 241.354 9.51482 253.567C-19.4752 312.508 -9.35815 379.326 0.423126 443.939C5.36215 476.57 10.4706 510.306 10.3224 542.235C10.1863 571.573 3.57166 597.584 -3.43616 625.107C-6.25803 636.204 -9.18274 647.676 -11.6417 659.402C-14.0945 671.071 -15.876 682.452 -17.609 693.458C-22.1458 722.276 -26.4104 749.499 -41.6993 777.4C-47.21 787.46 -53.5312 797.465 -59.6437 807.141C-70.6197 824.513 -81.9677 842.476 -88.9513 861.279C-96.7848 882.381 -98.1882 902.373 -93.237 922.399C-85.2947 954.528 -69.6821 983.754 -54.5807 1012.02C-38.4752 1042.18 -21.8222 1073.35 -14.2367 1108.34L-13.7951 1108.29ZM39.4696 1102.24C34.4217 1071.52 22.6956 1043.08 11.3416 1015.58C0.828415 990.09 -10.0417 963.732 -15.4616 935.737C-22.8777 897.477 -12.05 859.074 -1.58214 821.936C1.57849 810.725 4.84799 799.135 7.49142 787.877C12.4093 766.978 15.0194 745.555 17.5419 724.84C19.9222 705.314 22.3811 685.125 26.7697 665.463C29.6339 652.657 32.9609 640.148 36.1457 628.05C43.9247 598.594 51.2682 570.772 52.5779 539.341C53.5881 515.099 53.216 490.072 52.8198 463.574C51.8036 395.383 50.7541 324.873 74.1457 265.438C78.2772 254.934 82.8896 244.593 87.3507 234.588C104.191 196.839 120.097 161.183 111.622 117.587C104.926 83.1291 91.0013 50.5853 77.5331 19.1122C63.0729 -14.6837 48.1197 -49.629 41.9588 -87.1935L41.5112 -87.1209C47.6812 -49.5019 62.6434 -14.5295 77.1188 19.2906C90.5749 50.7456 104.491 83.2622 111.178 117.666C119.622 161.122 103.747 196.715 86.9364 234.412C82.4752 244.417 77.8628 254.761 73.7223 265.262C50.2974 324.782 51.3408 395.338 52.3661 463.574C52.7624 490.062 53.1344 515.084 52.1272 539.314C50.8206 570.693 43.4801 598.494 35.7071 627.932C32.5102 640.03 29.2044 652.561 26.3311 665.378C21.9395 685.065 19.4776 705.263 17.0973 724.798C14.5779 745.504 11.9556 766.911 7.05589 787.787C4.40642 799.035 1.13994 810.622 -2.01765 821.828C-12.5006 859.029 -23.3405 897.471 -15.9062 935.852C-10.4621 963.871 0.404984 990.254 10.9273 1015.77C22.2662 1043.23 33.9832 1071.63 39.0099 1102.29L39.4696 1102.24ZM91.9389 1093.86C90.4267 1067.98 85.3031 1042.54 80.3429 1017.95C75.8848 995.846 71.2694 972.996 69.3216 949.925C68.6562 942.079 68.0019 934.258 67.3587 926.461C64.192 888.273 60.9165 848.782 55.8867 809.557C47.418 743.502 59.5494 687.137 72.3884 627.463C78.7188 598.047 85.2638 567.629 89.3257 535.445C93.6962 500.863 102.987 469.88 112.823 437.076C114.617 431.096 116.471 424.914 118.288 418.723C125.136 395.401 127.846 371.287 130.468 347.95C132.634 328.677 134.875 308.752 139.436 289.316C142.597 275.839 146.583 262.029 150.433 248.673C162.026 208.489 174.024 166.935 167.068 124.81C161.016 88.0621 146.441 53.2197 132.34 19.5175C118.092 -14.5416 103.359 -49.7439 97.256 -87.1995L96.8053 -87.1269C102.933 -49.6229 117.674 -14.3904 131.935 19.6899C146.011 53.3709 160.577 88.1891 166.644 124.895C173.58 166.935 161.606 208.423 150.028 248.561C146.174 261.92 142.188 275.736 139.022 289.226C134.455 308.685 132.213 328.626 130.048 347.901C127.429 371.19 124.722 395.298 117.883 418.584C116.068 424.772 114.211 430.954 112.421 436.934C102.579 469.756 93.2818 500.751 88.9053 535.373C84.8373 567.541 78.2923 597.95 71.968 627.354C59.1199 687.07 46.9825 743.471 55.4602 809.602C60.4839 848.839 63.7504 888.312 66.9171 926.497C67.5643 934.296 68.2176 942.117 68.877 949.958C70.8369 973.056 75.4462 995.931 79.9074 1018.03C84.8646 1042.62 89.9881 1068.04 91.4973 1093.89L91.9389 1093.86ZM148.561 1038.23C150.729 1015.07 152.977 991.119 153.703 967.603C155.039 924.05 137.624 888.409 119.187 850.675C114.895 841.904 110.458 832.813 106.287 823.648C86.271 779.687 75.7396 739.286 89.3802 685.017C91.0356 678.429 92.689 671.865 94.3404 665.324C105.852 619.633 116.74 576.473 126.539 531.265C133.311 500.007 148.618 477.571 164.793 453.82C169.618 446.745 174.605 439.429 179.532 431.662C199.167 400.706 201.671 369.088 204.333 335.613C205.107 325.81 205.912 315.672 207.161 305.367C209.009 290.121 211.628 274.215 214.16 258.841C221.328 215.222 228.753 170.138 221.57 127.208C215.4 90.3335 201.124 55.2824 187.326 21.3897C173.208 -13.2894 158.593 -49.1481 152.544 -87.1904L152.094 -87.1209C158.176 -49.0241 172.778 -13.1473 186.909 21.5621C200.7 55.4366 214.961 90.4575 221.125 127.281C228.296 170.138 220.874 215.185 213.7 258.757C211.165 274.139 208.558 290.045 206.695 305.301C205.446 315.614 204.644 325.756 203.867 335.564C201.221 368.982 198.725 400.546 179.148 431.408C174.227 439.169 169.242 446.479 164.421 453.554C148.204 477.341 132.888 499.829 126.095 531.16C116.301 576.37 105.419 619.527 93.8958 665.212C92.2484 671.757 90.595 678.321 88.9356 684.905C82.5629 710.256 81.099 732.768 84.3262 755.76C87.2418 776.517 93.8867 797.513 105.87 823.836C110.047 833.009 114.484 842.092 118.775 850.875C137.189 888.557 154.58 924.15 153.255 967.591C152.532 991.089 150.288 1015.03 148.113 1038.19C146.649 1053.82 145.134 1069.99 144.106 1085.84L144.556 1085.87C145.579 1070.02 147.094 1053.86 148.561 1038.23ZM213.286 1025.08C219.168 1010.56 225.25 995.541 227.54 979.045C230.307 959.083 226.276 938.583 215.209 916.356C205.461 896.775 191.693 878.446 178.383 860.723C170.96 850.845 163.953 841.514 157.789 832.202C123.778 780.815 116.613 743.683 130.408 690.31C133.816 677.126 137.307 663.899 140.691 651.106C151.664 609.555 162.026 570.306 170.721 528.67C177.36 496.886 195.707 480.278 216.951 461.082C224.21 454.518 231.711 447.731 239.048 440.01C267.69 409.87 268.568 377.048 269.596 339.039C269.802 331.445 270.01 323.587 270.461 315.602C271.411 298.786 273.029 281.858 274.744 263.935C279.06 218.745 283.515 172.02 276.362 128.739C270.207 91.6249 256.043 56.2835 242.345 22.1004C228.345 -12.8448 213.866 -48.9636 207.814 -87.1904L207.363 -87.1209C213.413 -48.8426 227.93 -12.6906 241.925 22.2698C255.614 56.4166 269.78 91.749 275.899 128.799C283.058 172.05 278.594 218.73 274.278 263.892C272.566 281.819 270.951 298.75 269.998 315.578C269.544 323.569 269.336 331.43 269.13 339.027C268.117 376.943 267.24 409.683 238.722 439.698C231.393 447.408 223.902 454.189 216.643 460.746C195.341 480.009 176.943 496.65 170.277 528.574C161.581 570.203 151.222 609.446 140.249 650.991C136.871 663.781 133.381 677.002 129.966 690.198C122.68 718.383 121.473 741.968 126.164 764.422C130.562 785.47 140.198 806.463 157.408 832.45C163.578 841.774 170.591 851.111 178.014 860.998C203.906 895.478 233.253 934.539 227.089 978.978C224.806 995.423 218.733 1010.41 212.874 1024.91C205.827 1042.31 198.538 1060.3 197.752 1080.93L198.205 1080.94C198.983 1060.39 206.266 1042.44 213.292 1025.08H213.286ZM269.62 1024.26C275.932 1009.15 282.462 993.535 284.803 976.296C287.555 956.016 283.424 935.549 272.176 913.734C262.243 894.476 248.161 876.577 234.542 859.265C226.962 849.632 219.8 840.531 213.416 831.328C178.842 781.499 171.408 743.229 186.001 690.116C190 675.541 194.131 661.062 198.124 647.059C209.444 607.365 220.136 569.873 228.435 529.336C234.711 498.7 252.979 479.661 272.318 459.5C278.972 452.543 285.877 445.366 292.458 437.521C318.669 406.28 320.063 374.348 321.681 337.37C322.032 329.309 322.395 320.974 323.039 312.433C324.285 295.846 326.306 278.446 328.256 261.621C333.54 216.09 339.002 169.01 331.514 124.97C325.323 88.6276 311.262 54.1573 297.663 20.8211C283.609 -13.6342 269.076 -49.263 263.096 -87.1904L262.649 -87.1209C268.637 -49.139 283.179 -13.486 297.243 20.9935C310.832 54.3085 324.884 88.7426 331.054 125.037C338.531 169.01 333.071 216.075 327.791 261.56C325.84 278.392 323.819 295.792 322.57 312.39C321.926 320.938 321.563 329.276 321.212 337.34C319.597 374.239 318.206 406.099 292.095 437.218C285.523 445.055 278.636 452.232 271.976 459.176C252.589 479.386 234.279 498.474 227.979 529.239C219.682 569.768 208.991 607.241 197.673 646.926C193.681 660.929 189.549 675.411 185.548 689.989C177.856 718.011 176.474 741.554 181.174 764.09C185.635 785.431 195.462 806.245 213.044 831.585C219.434 840.8 226.599 849.904 234.185 859.543C261.862 894.721 290.48 931.106 284.353 976.232C282.021 993.411 275.503 1009 269.2 1024.08C261.53 1042.43 253.599 1061.4 253.197 1083.32H253.651C254.053 1061.5 261.965 1042.57 269.62 1024.26ZM324.618 1028.34C330.446 1006.12 336.474 983.149 338.531 959.742C342.52 914.024 318.402 881.879 292.86 847.835C286.554 839.464 280.046 830.774 274.015 821.921C226.896 752.717 250.121 688.843 274.701 621.224C284.903 593.162 295.452 564.145 301.193 533.948C307.299 501.837 318.499 473.724 330.361 443.963C333.083 437.097 335.927 429.999 338.688 422.849C349.803 394.076 353.063 365.773 356.511 335.809C358.193 321.189 359.935 306.072 362.672 290.986C365.479 275.522 369.293 259.365 372.977 243.743C383.535 198.998 394.451 152.726 386.496 108.103C380.487 74.3882 366.441 42.9242 352.858 12.4976C338.758 -19.0844 324.179 -51.7401 318.378 -87.1783L317.931 -87.1057C323.729 -51.61 338.319 -18.9271 352.428 12.6821C366.002 43.0845 380.036 74.5213 386.037 108.181C393.976 152.714 383.07 198.938 372.523 243.637C368.836 259.268 365.022 275.428 362.216 290.904C359.475 306.006 357.733 321.131 356.049 335.758C352.604 365.7 349.346 393.968 338.252 422.688C335.491 429.832 332.663 436.931 329.929 443.796C318.058 473.579 306.849 501.707 300.736 533.863C294.99 564.024 284.458 593.023 274.263 621.069C249.637 688.818 226.379 752.778 273.628 822.175C279.677 831.055 286.188 839.733 292.485 848.129C317.967 882.091 342.036 914.172 338.062 959.712C336.023 983.083 330.002 1006.04 324.176 1028.23C318.3 1050.64 312.22 1073.81 310.164 1097.57L310.617 1097.61C312.671 1073.86 318.744 1050.72 324.618 1028.33V1028.34ZM380.054 1026.23C384.591 998.607 389.279 970.035 391.339 941.523C394.883 892.492 374.683 863.823 351.291 830.629C344.94 821.592 338.337 812.246 331.856 801.999C293.601 741.508 318.775 691.737 345.424 639.041C361.121 607.97 377.381 575.847 380.847 540.339C384.313 504.831 383.266 468.244 382.25 432.911C380.517 372.636 378.72 310.306 399.508 251.579C403.742 239.636 408.675 227.656 413.905 214.983C431.919 171.279 450.544 126.086 440.399 80.3768C434.072 51.8405 420.804 26.0323 407.971 1.06795C393.828 -26.437 379.207 -54.8856 373.663 -87.1965L373.219 -87.1209C378.772 -54.7313 393.411 -26.2585 407.565 1.27361C420.386 26.2107 433.643 51.9947 439.958 80.4464C450.072 126.017 431.471 171.142 413.484 214.783C408.255 227.486 403.313 239.46 399.081 251.419C378.264 310.222 380.06 372.593 381.796 432.911C382.816 468.232 383.868 504.753 380.396 540.282C376.936 575.714 360.709 607.801 345.009 638.826C318.309 691.646 293.069 741.533 331.48 802.238C337.971 812.497 344.559 821.846 350.928 830.886C374.271 864.013 394.427 892.619 390.897 941.483C388.837 969.98 384.149 998.538 379.616 1026.17C374.71 1056.06 369.635 1086.96 367.868 1117.91L368.319 1117.94C370.076 1087 375.148 1056.1 380.054 1026.23V1026.23ZM435.524 1022.89C438.954 990.895 442.504 957.813 444.328 925.075C447.162 874.285 432.699 850.688 410.811 814.983C406.954 808.689 402.965 802.177 398.758 795.021C361.529 731.658 389.037 691.081 418.163 648.124C438.367 618.32 459.257 587.506 460.927 546.857C462.741 502.291 449.845 459.666 437.357 418.442C418.181 355.142 400.067 295.344 431.432 229.927C438.17 215.866 446.442 202.086 455.198 187.496C477.565 150.237 500.687 111.723 496.368 68.7868C493.413 39.4097 477.728 13.2598 462.563 -12.0282C448.46 -35.5347 433.882 -59.8428 428.949 -87.1965L428.504 -87.1178C433.449 -59.6825 448.051 -35.3381 462.173 -11.8074C477.314 13.4382 492.971 39.5428 495.914 68.8201C500.218 111.605 477.138 150.053 454.817 187.236C446.046 201.835 437.777 215.624 431.026 229.706C416.908 259.156 411.706 290.454 415.117 325.39C418.166 356.615 427.705 388.1 436.927 418.545C449.406 459.73 462.309 502.324 460.482 546.811C458.816 587.34 437.962 618.09 417.794 647.83C388.586 690.908 360.997 731.609 398.374 795.212C402.581 802.374 406.57 808.886 410.429 815.174C432.276 850.818 446.705 874.366 443.884 925.018C442.069 957.743 438.509 990.816 435.079 1022.8C431.051 1060.34 426.889 1099.16 425.482 1137.65L425.936 1137.67C427.358 1099.22 431.504 1060.42 435.524 1022.89ZM490.821 1021.56C493.709 985.339 496.695 947.886 498.276 910.933C500.475 859.516 487.428 836.741 465.808 799.026C463.57 795.118 461.253 791.08 458.852 786.813C423.489 724.269 453.151 687.249 484.56 648.054C506.996 620.05 530.2 591.09 531.667 550.91C533.482 501.35 511.929 454.993 491.093 410.164C460.325 343.945 431.244 281.404 472.913 210.948C480.892 197.462 490.818 184.269 501.325 170.305C528.198 134.597 555.984 97.677 551.396 53.7399C548.568 26.6614 533.703 4.66409 517.96 -18.6277C503.745 -39.6783 489.028 -61.4488 484.234 -87.1965L483.789 -87.1148C488.595 -61.2734 503.333 -39.4636 517.585 -18.3736C533.291 4.86977 548.133 26.8217 550.942 53.7883C555.512 97.55 527.772 134.395 500.965 170.032C490.446 184.009 480.513 197.208 472.535 210.718C462.484 227.713 456.251 244.668 453.48 262.555C451.003 278.522 451.363 294.887 454.578 312.593C460.552 345.506 475.874 378.47 490.691 410.351C511.506 455.135 533.034 501.441 531.219 550.888C529.759 590.924 506.603 619.82 484.209 647.77C452.706 687.088 422.951 724.223 458.465 787.034C460.884 791.304 463.192 795.342 465.421 799.25C487.001 836.896 500.025 859.619 497.832 910.915C496.25 947.856 493.265 985.318 490.376 1021.52C487.016 1063.67 483.541 1107.25 482.259 1150.29H482.715C483.992 1107.28 487.464 1063.7 490.827 1021.56H490.821ZM541.382 1078.92C543.862 1023.03 546.427 965.238 548.843 908.389C551.015 857.384 538.258 833.684 517.165 794.398C515.662 791.604 514.116 788.722 512.525 785.754C477.876 720.869 508.847 684.406 541.636 645.801C565.285 617.954 589.744 589.161 591.888 547.752C594.553 496.399 570.438 450.444 547.125 406.002C513.82 342.536 482.364 282.602 525.793 210.543C533.96 197.017 544.001 183.957 554.647 170.132C581.656 135.048 609.585 98.784 604.745 54.4113C601.827 27.6413 586.75 4.60059 572.18 -17.684C558.504 -38.5955 544.355 -60.2148 539.516 -85.4332L539.068 -85.3485C543.932 -60.0424 558.098 -38.3838 571.796 -17.4391C587.016 5.8255 601.385 27.7986 604.292 54.4627C609.131 98.6509 581.242 134.851 554.287 169.857C543.632 183.694 533.57 196.775 525.403 210.307C514.926 227.689 508.493 244.786 505.744 262.595C503.279 278.495 503.826 294.612 507.408 311.876C514.061 343.975 529.934 374.205 546.726 406.214C570.015 450.602 594.102 496.502 591.447 547.728C589.305 588.982 564.901 617.718 541.297 645.507C508.409 684.221 477.341 720.818 512.138 785.966C513.727 788.942 515.271 791.824 516.771 794.613C537.846 833.823 550.564 857.49 548.402 908.374C545.982 965.22 543.417 1023 540.937 1078.9C539.879 1102.74 538.823 1126.59 537.771 1150.43L538.224 1150.45C539.275 1126.61 540.327 1102.77 541.382 1078.92ZM593.878 1109.2C594.157 1054.56 594.441 998.063 589.396 942.929C583.692 880.591 571.76 828.748 552.923 784.445C522.264 712.322 560.355 674.767 600.68 635.009C631.016 605.103 662.381 574.18 664.586 526.798C666.975 475.508 638.175 435.797 610.326 397.391C572.622 345.4 537.011 296.291 578.196 223.001C585.879 209.327 595.457 195.807 604.718 182.732C628.893 148.616 653.894 113.344 650.149 69.7547C647.839 42.7397 634.861 18.0355 622.324 -5.85818C610.801 -27.792 598.884 -50.4728 594.822 -75.3071L594.371 -75.2315C598.448 -50.3276 610.383 -27.6135 621.922 -5.64951C634.452 18.1988 647.409 42.8607 649.714 69.7819C653.431 113.208 628.491 148.419 604.373 182.457C595.103 195.541 585.519 209.073 577.824 222.765C567.883 240.458 562.097 257.172 560.161 273.879C558.422 288.799 559.81 303.392 564.395 318.488C572.931 346.567 590.926 371.384 609.981 397.657C637.785 435.999 666.539 475.645 664.156 526.777C661.957 573.981 630.656 604.843 600.384 634.686C579.993 654.79 560.736 673.778 549.923 697.293C544.11 709.927 541.321 722.657 541.397 736.219C541.482 751.384 545.123 767.223 552.527 784.638C594.574 883.549 594.008 998.25 593.437 1109.2C593.379 1120.09 593.325 1131.38 593.313 1142.34H593.766C593.779 1131.38 593.833 1120.11 593.887 1109.2H593.878ZM649.43 1130.42C645.685 1089.92 636.817 1049.79 628.258 1010.95C620.34 975.107 612.149 938.038 608.03 900.825C603.115 856.416 596.298 820.73 584.502 777.654C571.258 729.296 579.031 697.366 614.206 655.64C624.644 643.257 640.359 629.517 657.003 614.969C697.329 579.715 743.032 539.761 743.374 496.229C743.677 456.887 709.003 426.79 678.404 400.234C668.663 391.766 659.456 383.79 651.671 375.824C605.583 328.677 600.529 291.691 632.353 234.482C638.175 224.017 644.678 213.637 650.966 203.595C662.562 185.082 674.557 165.937 682.421 145.945C691.238 123.537 693.878 102.277 690.496 80.9514C686.791 57.6869 678.695 35.7954 670.889 14.6238C662.117 -9.13374 653.044 -33.7019 650.092 -60.4023L649.641 -60.3509C652.599 -33.596 661.682 -9.00368 670.462 14.7781C678.271 35.9315 686.35 57.8018 690.034 81.0301C697.538 128.373 674.724 164.809 650.567 203.363C644.276 213.41 637.77 223.796 631.942 234.27C615.61 263.635 609.443 287.502 612.534 309.393C615.585 330.979 627.913 352.193 651.329 376.147C659.129 384.129 668.342 392.123 678.093 400.585C708.616 427.077 743.211 457.101 742.902 496.235C742.567 539.565 696.93 579.449 656.704 614.636C640.048 629.196 624.317 642.949 613.861 655.352C596.071 676.457 586.018 694.09 581.254 712.54C576.27 731.845 577.162 752.578 584.064 777.782C595.859 820.833 602.668 856.498 607.579 900.879C611.702 938.12 619.892 975.198 627.813 1011.06C636.388 1049.86 645.253 1090 648.985 1130.46L649.43 1130.42ZM705.081 1118.6C697.677 1080.11 682.947 1043.19 668.699 1007.48C654.181 971.115 639.189 933.511 632.066 894.452C628.303 873.813 626.486 852.163 624.728 831.24C623.325 814.514 621.873 797.22 619.439 780.54C611.136 723.697 620.739 691.096 657.49 651.333C668.012 639.948 686.159 625.573 707.174 608.929C733.662 587.945 763.687 564.166 787.09 539.48C814.245 510.844 827.014 486.636 826.107 465.47C824.573 429.345 779.919 408.249 744.036 391.297C731.727 385.481 720.097 379.988 711.647 374.556C664.54 344.26 655.346 312.291 678.873 260.475C684.868 247.273 691.594 234.715 698.097 222.568C717.454 186.413 735.743 152.266 732.341 106.95C730.441 81.6259 724.631 56.7432 719.012 32.7044C713.099 7.38615 706.98 -18.794 705.377 -45.6306L704.923 -45.6033C706.529 -18.7184 712.651 7.47993 718.57 32.8163C724.187 56.8521 729.991 81.7045 731.878 106.993C735.268 152.179 717.012 186.271 697.686 222.363C691.177 234.515 684.451 247.079 678.447 260.299C654.804 312.36 664.047 344.499 711.414 374.928C719.883 380.372 731.53 385.874 743.855 391.696C779.626 408.597 824.144 429.63 825.665 465.494C826.557 486.53 813.833 510.629 786.767 539.168C763.384 563.83 733.375 587.6 706.898 608.575C685.869 625.231 667.71 639.616 657.16 651.03C638.024 671.736 626.465 690.757 620.784 710.894C615.34 730.221 614.778 751.725 618.997 780.609C621.417 797.275 622.88 814.563 624.284 831.279C626.041 852.227 627.859 873.885 631.627 894.549C638.756 933.653 653.767 971.278 668.284 1007.67C682.524 1043.36 697.244 1080.25 704.639 1118.71L705.081 1118.6ZM760.608 1110.82C750.89 1071.04 732.135 1035.29 714 1000.73C698.72 971.595 682.914 941.471 672.609 909.1C662.629 877.711 661.954 843.77 661.313 810.967C661.144 802.326 660.971 793.391 660.623 784.671C657.901 715.758 666.672 683.771 723.884 630.164C733.115 621.52 747.974 610.024 765.181 596.713C792.402 575.656 826.276 549.449 852.323 523.114C882.871 492.213 896.651 467.345 894.422 447.093C889.361 401.093 845.945 390.668 803.952 380.581C770.773 372.612 739.436 365.086 727.275 341.039C718.398 323.496 720.905 298.759 734.939 265.459C739.128 255.511 743.592 245.836 747.908 236.481C764.144 201.291 779.475 168.06 778.301 125.98C777.527 98.2607 773.414 70.4322 769.439 43.52C765.61 17.606 761.651 -9.19121 760.668 -35.9158L760.215 -35.8977C761.204 -9.14886 765.166 17.6604 768.986 43.5866C772.96 70.4836 777.07 98.3 777.841 125.992C779.015 167.964 763.708 201.152 747.5 236.288C743.184 245.645 738.729 255.327 734.524 265.28C720.436 298.71 717.938 323.557 726.878 341.241C739.131 365.477 770.568 373.026 803.852 381.02C845.69 391.067 888.953 401.459 893.983 447.142C896.194 467.249 882.466 491.995 852.012 522.791C826.001 549.104 792.126 575.302 764.906 596.353C747.69 609.661 732.822 621.172 723.576 629.831C694.695 656.889 678.604 677.966 669.779 700.302C660.018 725.007 658.89 751.901 660.176 784.686C660.518 793.4 660.693 802.335 660.862 810.97C661.503 843.819 662.169 877.781 672.18 909.233C682.497 941.647 698.309 971.786 713.601 1000.93C731.724 1035.48 750.464 1071.2 760.178 1110.92L760.608 1110.82ZM816.864 1108.3C807.654 1066.32 786.455 1030.76 765.952 996.354C749.459 968.683 732.404 940.068 721.592 908.18C709.303 871.917 711.36 836.137 713.54 798.27C713.843 793.152 714.145 787.862 714.402 782.627C714.759 775.48 714.623 767.928 714.481 759.943C714.242 746.841 713.997 733.294 716.081 721.465C722.91 682.724 745.612 659.181 779.475 627.687C788.754 619.055 803.671 607.595 820.974 594.33C848.391 573.285 882.517 547.096 908.733 520.74C939.499 489.805 953.342 464.862 951.04 444.489C949.086 427.183 938.64 413.82 919.074 403.637C902.004 394.748 880.965 389.594 860.644 384.607C846.879 381.231 833.883 378.044 823.666 373.976C796.884 363.311 782.732 349.404 779.139 330.205C775.51 310.809 783.137 287.024 791.924 264.21C795.695 254.413 799.745 244.765 803.662 235.429C818.73 199.534 832.945 165.638 832.038 124.631C831.415 96.4128 827.58 67.94 823.872 40.4018C820.511 15.4556 817.033 -10.3405 815.95 -35.9158L815.494 -35.8977C816.583 -10.3012 820.058 15.5191 823.421 40.4622C827.126 67.9853 830.961 96.446 831.587 124.641C832.495 165.553 818.279 199.404 803.25 235.241C799.319 244.578 795.281 254.235 791.506 264.037C782.696 286.912 775.047 310.769 778.697 330.274C782.327 349.631 796.563 363.659 823.506 374.387C833.75 378.464 846.761 381.646 860.541 385.033C900.719 394.887 946.256 406.054 950.596 444.525C952.876 464.756 939.081 489.591 908.416 520.407C882.221 546.745 848.113 572.919 820.705 593.958C803.405 607.232 788.464 618.698 779.169 627.345C763.369 642.041 749.399 655.398 738.459 670.009C726.18 686.423 718.921 702.737 715.636 721.374C713.543 733.246 713.788 746.82 714.027 759.94C714.169 767.928 714.305 775.471 713.949 782.606C713.685 787.838 713.383 793.128 713.087 798.242C710.906 836.164 708.852 871.98 721.168 908.335C731.999 940.265 749.066 968.901 765.571 996.596C786.056 1030.96 807.237 1066.5 816.428 1108.4L816.864 1108.3ZM878.41 1099.07C866.811 1055.84 841.377 1021.7 816.782 988.672C796.711 961.733 775.951 933.874 762.722 901.148C744.811 856.864 754.628 824.453 767.059 783.419C768.293 779.348 769.566 775.138 770.834 770.858C775.37 755.47 778.655 741.521 781.54 729.202C791.255 687.784 798.275 657.857 841.668 617.401C851.189 608.527 865.353 597.654 881.749 585.062C932.258 546.276 1001.46 493.154 998.622 447.374C996.293 409.737 956.451 392.174 921.3 376.679C908.933 371.235 897.252 366.078 887.78 360.347C864.439 346.256 852.054 330.362 848.8 310.322C845.887 292.374 849.967 272.306 858 243.713C860.849 233.575 863.983 223.403 867.013 213.567C878.464 176.39 889.283 141.281 888.009 102.063C887.181 76.5326 883.294 50.9059 879.541 26.12C875.99 2.70421 872.321 -21.5101 871.22 -45.6548L870.767 -45.6336C871.871 -21.4677 875.542 2.75865 879.093 26.1865C882.844 50.9603 886.727 76.575 887.562 102.078C888.832 141.212 878.026 176.293 866.584 213.434C863.559 223.273 860.417 233.447 857.571 243.589C849.519 272.246 845.433 292.365 848.361 310.394C851.637 330.574 864.089 346.57 887.55 360.734C897.047 366.481 908.742 371.622 921.122 377.067C956.155 392.51 995.861 410.013 998.174 447.374C1000.99 492.915 931.919 545.949 881.48 584.687C865.072 597.284 850.902 608.164 841.365 617.05C797.87 657.596 790.838 687.578 781.105 729.078C778.22 741.382 774.95 755.334 770.404 770.707C769.14 774.987 767.864 779.194 766.633 783.265C754.175 824.398 744.336 856.864 762.308 901.3C775.567 934.076 796.336 961.959 816.425 988.923C840.996 1021.91 866.402 1056.02 877.98 1099.16L878.41 1099.07ZM943.21 1085.05C926.878 1041.33 896.049 1009.3 866.233 978.331C840.845 951.966 814.598 924.7 797.522 890.39C771.992 839.094 793.372 805.904 820.436 763.881C822.677 760.4 824.997 756.797 827.31 753.153C841.275 731.14 848.854 710.038 856.182 689.638C867.022 659.45 877.26 630.938 906.662 602.55C917.024 592.551 931.417 581.43 946.658 569.653C967.941 553.208 992.068 534.568 1010.62 514.724C1031.96 491.889 1042.54 471.078 1042.93 451.116C1043.25 434.56 1037.16 418.826 1024.3 403.026C1012.97 389.095 998.026 376.906 983.569 365.12C973.286 356.739 963.586 348.827 955.568 340.645C916.621 300.894 922.168 261.911 929.188 212.557C930.797 201.258 932.685 189.755 934.508 178.631C940.412 142.639 946.519 105.438 944.332 68.3271C943.065 46.8319 939.208 25.4939 935.479 4.86069C931.65 -16.3109 927.691 -38.2356 926.517 -60.3872L926.061 -60.363C927.24 -38.1812 931.203 -16.2595 935.035 4.94235C938.758 25.5635 942.614 46.8863 943.878 68.3543C946.062 105.402 939.947 142.591 934.061 178.559C932.246 189.683 930.347 201.188 928.741 212.494C924.809 240.098 922.238 261.188 924.918 281.374C927.915 303.97 937.554 322.904 955.245 340.957C963.281 349.156 972.995 357.078 983.282 365.455C1011.37 388.354 1043.2 414.31 1042.47 451.107C1041.58 495.709 988.795 536.495 946.38 569.268C931.13 581.064 916.724 592.185 906.35 602.202C876.867 630.663 866.614 659.224 855.756 689.463C848.434 709.845 840.866 730.923 826.926 752.893C824.616 756.522 822.296 760.152 820.055 763.618C792.91 805.761 771.472 839.049 797.114 890.575C814.223 924.958 840.506 952.248 865.912 978.64C895.701 1009.58 926.502 1041.57 942.792 1085.21L943.21 1085.05ZM1008.08 1070.91C986.848 1026.87 950.759 996.771 915.859 967.667C885.058 941.979 853.209 915.418 832.138 879.526C817.62 854.801 815.327 832.713 824.903 810.008C833.45 789.744 850.375 771.509 868.296 752.203C873.395 746.705 878.67 741.013 883.781 735.248C903.58 712.888 914.465 687.953 924.993 663.839C936.989 636.361 948.318 610.405 971.719 587.561C981.624 577.882 994.164 568.092 1007.44 557.718C1043.79 529.318 1084.98 497.128 1087.13 454.884C1089.04 417.25 1066.7 385.018 1045.09 353.866C1037.19 342.475 1029.73 331.717 1023.43 320.744C999.236 278.597 999.771 237.872 1000.38 190.723C1000.42 187.531 1000.46 184.315 1000.5 181.075C1000.65 166.802 1001.1 152.161 1001.56 138C1002.63 103.823 1003.75 68.436 1000.65 34.259C999.036 16.4657 995.18 -0.825409 991.445 -17.5752C987.307 -36.1427 983.028 -55.3423 981.794 -75.2859L981.337 -75.2587C982.577 -55.2788 986.863 -36.061 991.015 -17.4905C994.739 -0.746765 998.595 16.5504 1000.2 34.3134C1003.29 68.4904 1002.18 103.823 1001.11 138.006C1000.66 152.167 1000.2 166.811 1000.05 181.087C1000.01 184.329 999.976 187.545 999.932 190.735C999.327 237.954 998.794 278.734 1023.04 320.986C1029.35 331.977 1036.81 342.744 1044.72 354.144C1066.28 385.236 1088.57 417.389 1086.67 454.86C1084.55 496.883 1043.42 529.006 1007.16 557.346C993.87 567.729 981.325 577.531 971.395 587.222C947.937 610.127 936.06 637.332 924.573 663.642C914.06 687.724 903.193 712.624 883.439 734.933C878.334 740.704 873.062 746.384 867.96 751.87C850.015 771.209 833.063 789.471 824.482 809.814C814.849 832.655 817.154 854.879 831.741 879.735C852.852 915.693 884.734 942.282 915.563 967.993C950.426 997.071 986.475 1027.13 1007.67 1071.08L1008.08 1070.91ZM1069.89 1061.29C1045.57 1016.13 1005.47 987.32 966.701 959.464C932.222 934.693 896.566 909.076 872.76 872.201C856.446 846.931 854.471 823.313 866.726 799.984C877.687 779.115 898.828 760.282 919.277 742.059C926.26 735.841 933.477 729.407 940.222 722.965C968.501 695.935 983.152 678.487 995.21 646.536C997.04 641.696 998.598 637.338 1000.1 633.134C1007.91 611.315 1012.62 598.146 1034.15 576.917C1043.65 567.541 1054.71 558.77 1066.42 549.467C1098.28 524.17 1131.22 498.017 1134.45 457.863C1137.5 419.927 1120.66 382.311 1104.38 345.935C1098.27 332.301 1092.51 319.425 1087.84 306.686C1073.84 268.52 1071.55 230.97 1069.13 191.213C1068.5 180.96 1067.86 170.344 1067 159.758C1065.39 139.936 1064.3 119.578 1063.25 99.8728C1061.68 70.5048 1060.06 40.1386 1056.66 10.7918C1055.08 -2.91534 1050.99 -16.0871 1047.03 -28.8294C1041.45 -46.798 1035.68 -65.3746 1037.08 -85.3878L1036.63 -85.4211C1035.22 -65.3202 1041 -46.7073 1046.61 -28.6933C1050.56 -15.9903 1054.65 -2.8246 1056.22 10.8432C1059.61 40.181 1061.24 70.532 1062.81 99.894C1063.86 119.587 1064.94 139.951 1066.55 159.779C1067.42 170.365 1068.06 180.969 1068.67 191.234C1071.09 231.022 1073.39 268.604 1087.42 306.834C1092.1 319.586 1097.87 332.47 1103.97 346.111C1120.23 382.435 1137.05 419.997 1134.01 457.821C1130.78 497.781 1097.92 523.874 1066.14 549.11C1054.41 558.423 1043.34 567.212 1033.82 576.594C1012.22 597.898 1007.51 611.107 999.665 632.986C998.153 637.19 996.605 641.536 994.778 646.381C982.749 678.248 968.126 695.66 939.898 722.639C933.162 729.075 925.946 735.505 918.965 741.726C898.489 759.97 877.315 778.837 866.315 799.773C860.387 811.057 857.785 822.045 858.357 833.366C858.998 846.069 863.584 858.842 872.367 872.452C896.224 909.399 931.913 935.038 966.429 959.836C1005.14 987.662 1045.21 1016.43 1069.48 1061.51L1069.89 1061.29ZM1124.54 1061.87C1099.99 1017.91 1060.76 988.388 1022.84 959.839C988.472 933.968 952.94 907.213 929.122 870.029C912.653 844.321 910.724 821.407 923.039 797.901C933.928 777.134 955.033 758.361 975.445 740.205C982.535 733.899 989.866 727.381 996.729 720.824C1025.06 693.758 1039.81 676.252 1052.3 644.047C1054.21 639.114 1055.85 634.646 1057.44 630.327C1065.18 609.207 1070.3 595.243 1090.64 574.961C1099.78 565.848 1110.22 557.418 1121.27 548.49C1151.3 524.233 1182.35 499.148 1185.39 459.908C1188.23 423.199 1173.9 384.51 1160.03 347.094C1154.77 332.909 1149.81 319.507 1145.9 306.523C1133.5 265.426 1130.51 225.575 1127.32 183.386C1126.72 175.449 1126.11 167.244 1125.43 159.069C1123.75 138.916 1122.71 118.132 1121.72 98.0309C1120.25 68.4904 1118.74 37.967 1115.13 8.64435C1113.44 -5.12627 1108.44 -18.0107 1103.6 -30.4747C1096.72 -48.1954 1089.61 -66.5179 1092.36 -87.1269L1091.92 -87.1844C1089.15 -66.4604 1096.28 -48.0835 1103.18 -30.3235C1108.02 -17.8867 1112.99 -5.02644 1114.67 8.69275C1118.28 37.9852 1119.79 68.5146 1121.25 98.0369C1122.24 118.144 1123.27 138.931 1124.95 159.09C1125.63 167.256 1126.25 175.471 1126.85 183.404C1130.03 225.617 1133.04 265.492 1145.44 306.638C1149.37 319.643 1154.33 333.042 1159.58 347.236C1173.43 384.607 1187.75 423.248 1184.91 459.857C1181.89 498.903 1150.92 523.925 1120.96 548.121C1109.9 557.055 1099.46 565.494 1090.3 574.628C1069.89 594.986 1064.76 608.977 1057 630.155C1055.42 634.474 1053.78 638.926 1051.85 643.865C1039.4 675.992 1024.67 693.467 996.393 720.479C989.533 727.033 982.205 733.548 975.122 739.851C954.676 758.034 933.537 776.835 922.613 797.677C916.733 808.901 914.144 819.85 914.749 831.155C915.406 843.816 919.972 856.606 928.716 870.256C952.58 907.509 988.145 934.291 1022.54 960.184C1060.43 988.714 1099.61 1018.22 1124.12 1062.08L1124.54 1061.87ZM1165.47 1080.18C1145.14 1033.9 1116.5 997.99 1088.58 966.07C1081.86 958.381 1074.11 950.218 1065.92 941.571C1039.68 913.888 1009.94 882.508 998.955 851.441C983.158 806.726 1016.12 770.269 1045.19 738.1C1052.81 729.677 1060.01 721.716 1066.26 713.771C1081.4 694.532 1089.68 672.468 1097.68 651.13C1106.18 628.476 1114.21 607.081 1129.76 588.562C1139.83 576.561 1152.87 565.479 1165.47 554.76C1193.06 531.308 1221.59 507.054 1225.36 469.611C1228.52 438.383 1219.61 404.178 1211.02 371.099C1207.37 357.065 1203.92 343.809 1201.44 331.021C1192.97 287.447 1189.34 242.542 1190.02 189.704C1190.23 173.269 1191.32 156.165 1192.48 138.054C1195.04 98.1095 1197.69 56.8067 1190.57 20.5579C1186.83 1.54884 1178.15 -13.852 1169.75 -28.7417C1160.04 -45.9512 1150.01 -63.7474 1147.64 -87.1541L1147.19 -87.1088C1149.56 -63.6083 1159.62 -45.7697 1169.35 -28.5179C1177.73 -13.6554 1186.4 1.71217 1190.13 20.6517C1197.24 56.843 1194.59 98.1156 1192.03 138.03C1190.87 156.147 1189.77 173.257 1189.56 189.707C1188.9 242.575 1192.53 287.508 1200.99 331.112C1203.48 343.915 1206.93 357.18 1210.58 371.22C1219.18 404.236 1228.08 438.413 1224.92 469.565C1221.15 506.824 1192.69 531.014 1165.18 554.409C1152.56 565.14 1139.51 576.234 1129.41 588.284C1113.81 606.857 1105.4 629.29 1097.26 650.982C1089.26 672.286 1080.99 694.317 1065.9 713.502C1059.66 721.435 1052.46 729.389 1044.85 737.807C1015.69 770.069 982.634 806.635 998.525 851.607C1009.54 882.759 1039.31 914.19 1065.59 941.907C1073.78 950.548 1081.52 958.711 1088.24 966.405C1116.13 998.296 1144.74 1034.18 1165.06 1080.4L1165.47 1080.18ZM1198.22 1108.94C1188.14 1062.09 1167.21 1018.68 1146.97 976.701C1127.75 936.829 1107.88 895.599 1097.48 851.692C1086.84 806.768 1103.48 774.213 1121.09 739.748C1126.23 729.68 1131.55 719.263 1136.4 708.224C1143.29 692.496 1146.98 676.1 1150.55 660.237C1155.96 636.207 1161.06 613.511 1176.36 593.144C1185.96 580.356 1196.55 569.913 1206.79 559.817C1227.92 538.975 1247.87 519.288 1253.07 483.808C1259.56 439.529 1258.33 393.559 1257.14 349.102C1255.96 305.086 1254.75 259.576 1260.97 215.434C1262.83 202.238 1265.72 187.85 1268.79 172.612C1277.62 128.757 1287.63 79.0248 1275.77 40.1568C1268.69 16.9346 1254.48 -0.994766 1240.73 -18.3373C1225.04 -38.1419 1208.8 -58.6239 1202.93 -87.1965L1202.49 -87.1057C1208.38 -58.4273 1224.65 -37.9029 1240.38 -18.0561C1254.1 -0.74675 1268.28 17.1523 1275.34 40.2899C1287.16 79.049 1277.16 128.709 1268.35 172.525C1265.28 187.765 1262.38 202.165 1260.52 215.37C1254.3 259.546 1255.51 305.08 1256.69 349.114C1257.87 393.553 1259.11 439.505 1252.62 483.741C1247.44 519.074 1227.54 538.706 1206.47 559.49C1196.22 569.604 1185.62 580.057 1175.99 592.872C1160.64 613.318 1155.52 636.059 1150.11 660.137C1146.55 675.982 1142.85 692.363 1135.98 708.039C1131.14 719.07 1125.82 729.477 1120.68 739.54C1111.64 757.23 1103.1 773.937 1098.11 791.957C1092.5 812.191 1092.16 831.204 1097.03 851.801C1107.44 895.753 1127.33 937.004 1146.56 976.897C1166.79 1018.85 1187.7 1062.24 1197.78 1109.03L1198.22 1108.94ZM1230.34 1138.5C1228.85 1079.6 1221.33 1021.29 1214.05 964.893C1203.62 884.069 1192.83 800.493 1200.08 715.235C1201 704.377 1201.21 693.76 1201.42 683.516C1202.02 653.71 1202.57 625.561 1220.55 598.029C1228.87 585.289 1237.21 575.457 1245.28 565.951C1261.41 546.948 1275.33 530.534 1281.48 498.846C1284.1 485.308 1286.72 471.722 1289.34 458.087C1301.93 392.607 1314.93 324.9 1330.21 259.649C1333.87 244.03 1339 227.677 1344.42 210.349C1358.74 164.749 1373.54 117.593 1364.39 75.2896C1357.27 42.3919 1335.03 18.1262 1311.5 -7.58217C1289.87 -31.1734 1267.52 -55.5994 1258.2 -87.2207L1257.77 -87.0936C1267.11 -55.3695 1289.5 -30.9223 1311.16 -7.27669C1334.66 18.3772 1356.85 42.6278 1363.94 75.3863C1373.07 117.575 1358.29 164.67 1343.98 210.216C1338.54 227.541 1333.39 243.906 1329.74 259.54C1314.47 324.8 1301.45 392.513 1288.87 457.994C1286.25 471.622 1283.63 485.209 1281.01 498.755C1274.89 530.325 1261 546.696 1244.91 565.651C1236.84 575.169 1228.48 585.008 1220.15 597.774C1202.1 625.416 1201.53 653.628 1200.94 683.501C1200.73 693.751 1200.52 704.346 1199.6 715.192C1192.34 800.499 1203.14 884.096 1213.57 964.948C1220.85 1021.33 1228.39 1079.63 1229.86 1138.5L1230.34 1138.5ZM1273.97 1090.8C1282.81 965.698 1291.95 836.333 1262.87 715.852C1253.66 677.743 1244.97 641.724 1267.2 603.309C1274.04 591.493 1280.5 582.238 1286.75 573.288C1299.72 554.736 1310.91 538.715 1317.41 509.223C1323.54 481.397 1335.33 461.033 1347.8 439.471C1352.77 430.888 1357.9 422.014 1362.92 412.275C1375.31 388.312 1380.1 361.197 1384.73 334.977C1387.66 318.412 1390.68 301.284 1395.59 285.073C1400.4 269.185 1407.06 252.408 1414.11 234.624C1423.41 211.19 1433.03 186.955 1439.09 162.855C1445.98 135.511 1447.1 112.488 1442.54 92.4688C1434.12 55.603 1406.8 28.4005 1377.88 -0.38382C1351.92 -26.2374 1325.07 -52.968 1313.49 -87.2267L1313.06 -87.0815C1324.67 -52.7231 1351.56 -25.9531 1377.56 -0.0632172C1406.43 28.6878 1433.71 55.8449 1442.09 92.5807C1452.28 137.213 1431.78 188.881 1413.69 234.47C1406.64 252.251 1399.97 269.046 1395.16 284.952C1390.24 301.191 1387.21 318.334 1384.29 334.908C1379.66 361.097 1374.88 388.176 1362.53 412.075C1357.5 421.808 1352.36 430.679 1347.4 439.257C1334.91 460.849 1323.11 481.243 1316.96 509.123C1310.49 538.524 1299.33 554.524 1286.38 573.04C1280.13 581.996 1273.65 591.26 1266.81 603.095C1256.82 620.316 1252.4 637.904 1252.84 658.443C1253.23 676.563 1257.23 694.459 1262.42 715.969C1291.49 836.385 1282.36 965.713 1273.52 1090.78C1271.93 1113.29 1270.29 1136.57 1268.92 1159.18L1269.37 1159.21C1270.74 1136.59 1272.38 1113.32 1273.97 1090.8ZM1333.29 1037.64C1345.29 930.819 1357.7 820.367 1321.05 721.819C1308.65 688.492 1298.53 649.312 1317.44 611.385C1324.22 597.774 1331.62 586.705 1338.77 575.998C1351.39 557.131 1363.31 539.308 1368.79 511.237C1374.79 480.535 1387.08 463.029 1402.62 440.863C1407.32 434.178 1412.16 427.252 1417.2 419.467C1432.91 395.129 1438.41 364.019 1443.73 333.934C1446.94 315.82 1450.25 297.092 1455.77 280.4C1460.31 266.696 1466.16 252.272 1472.38 236.989C1491.18 190.759 1512.5 138.363 1499.42 93.4306C1488.87 57.2513 1461.56 28.6908 1435.14 1.06795C1409.62 -25.6173 1383.23 -53.21 1370.84 -88.2097L1370.41 -88.0585C1382.84 -52.962 1409.26 -25.3361 1434.82 1.37039C1461.2 28.9509 1488.48 57.4721 1498.99 93.5667C1512.02 138.345 1490.74 190.654 1471.96 236.829C1465.75 252.112 1459.87 266.545 1455.33 280.27C1449.81 296.99 1446.49 315.735 1443.28 333.864C1437.97 363.907 1432.47 394.96 1416.81 419.231C1411.78 427.022 1406.93 433.93 1402.25 440.612C1386.67 462.824 1374.36 480.363 1368.34 511.161C1362.87 539.138 1350.98 556.925 1338.4 575.756C1331.24 586.463 1323.84 597.533 1317.03 611.182C1298.05 649.264 1308.2 688.558 1320.63 721.976C1357.24 820.421 1344.82 930.819 1332.84 1037.58C1328.19 1078.98 1323.38 1121.78 1321.73 1162.45L1322.18 1162.46C1323.82 1121.83 1328.64 1079.03 1333.29 1037.65V1037.64ZM1394.05 1039.56C1398.91 988.236 1403.95 935.171 1403.3 883.624C1402.58 825.744 1394.6 776.209 1378.93 732.193C1363.75 689.587 1357.13 653.616 1374.13 616.563C1380.57 602.514 1387.74 590.649 1394.67 579.171C1407.01 558.743 1418.67 539.447 1424.08 511.261C1429.97 480.59 1442.26 463.111 1457.82 440.987C1462.54 434.269 1467.42 427.322 1472.48 419.479C1488.84 394.137 1493.41 361.796 1497.83 330.522C1500.07 314.698 1502.37 298.338 1506.21 283.521C1509.75 269.829 1514.04 256.053 1518.58 241.481C1532.77 195.95 1547.44 148.867 1538.41 104.086C1530.82 66.4821 1510.76 31.4704 1491.35 -2.37698C1473.89 -32.849 1455.83 -64.3584 1446.69 -97.9063L1446.25 -97.7883C1455.41 -64.1799 1473.47 -32.6493 1490.96 -2.15315C1510.35 31.6609 1530.4 66.6364 1537.96 104.168C1546.96 148.84 1532.31 195.862 1518.15 241.341C1513.61 255.932 1509.31 269.714 1505.77 283.419C1501.93 298.257 1499.61 314.634 1497.38 330.468C1492.96 361.693 1488.4 393.983 1472.09 419.243C1467.04 427.077 1462.16 434.021 1457.44 440.733C1442.47 462.025 1429.54 480.417 1423.63 511.183C1418.23 539.289 1406.6 558.55 1394.28 578.947C1387.34 590.44 1380.16 602.308 1373.71 616.384C1365.46 634.368 1362.36 653.38 1364.24 674.5C1366.1 695.53 1372.84 716.463 1378.5 732.353C1413.42 830.408 1403.34 936.717 1393.59 1039.52C1390.03 1077.02 1386.36 1115.83 1384.98 1153.44L1385.43 1153.46C1386.81 1115.86 1390.49 1077.08 1394.05 1039.57V1039.56ZM1458.6 1042.71C1461.72 994.122 1464.95 943.882 1463.22 895.054C1461.29 840.437 1453.2 792.792 1438.51 749.399C1425.26 710.265 1413.81 668.388 1431.59 624.587C1437.61 609.767 1444.46 596.701 1451.08 584.073C1462.93 561.477 1474.12 540.139 1479.4 511.397C1485.05 480.686 1497.98 462.364 1512.95 441.15C1517.73 434.384 1522.66 427.385 1527.77 419.479C1545.48 392.044 1547.59 358.324 1549.64 325.719C1550.4 313.561 1551.19 300.985 1552.8 289.123C1554.42 277.173 1556.25 265.057 1558.02 253.34C1564.55 210.071 1571.3 165.326 1568.68 120.564C1566.26 79.4301 1558.86 38.0941 1551.72 -1.89607C1545.18 -38.4171 1538.43 -76.1872 1535.47 -113.718L1535.02 -113.682C1537.98 -76.1298 1544.73 -38.3506 1551.27 -1.81442C1558.41 38.1606 1565.81 79.4997 1568.22 120.588C1570.85 165.314 1564.1 210.035 1557.57 253.279C1555.8 264.996 1553.97 277.115 1552.35 289.065C1550.74 300.955 1549.95 313.537 1549.19 325.704C1547.15 358.257 1545.04 391.92 1527.39 419.255C1522.29 427.153 1517.36 434.145 1512.59 440.908C1497.59 462.167 1484.63 480.529 1478.96 511.334C1473.69 540.009 1462.52 561.32 1450.68 583.883C1444.06 596.519 1437.2 609.591 1431.18 624.439C1413.33 668.382 1424.81 710.335 1438.08 749.569C1470.78 846.12 1464.65 941.607 1458.15 1042.7C1456.13 1074.07 1454.05 1106.5 1453.26 1138.76H1453.71C1454.5 1106.51 1456.58 1074.08 1458.6 1042.71ZM1524.45 1047.78C1527.61 951.824 1530.6 861.189 1498.3 767.438C1481.42 718.459 1473.41 676.844 1489.14 632.956C1494.78 617.228 1501.31 602.928 1507.62 589.1C1518.9 564.375 1529.55 541.01 1534.73 511.564C1540.14 480.804 1553.09 462.503 1568.1 441.313C1572.94 434.505 1577.91 427.461 1583.05 419.494C1603.19 388.288 1601.54 354.044 1599.79 317.786C1599.43 310.319 1599.06 302.597 1598.9 294.999C1596.41 173.148 1607.66 57.4298 1619.57 -65.0873C1621.64 -86.4071 1623.78 -108.45 1625.82 -130.281L1625.37 -130.323C1623.33 -108.492 1621.19 -86.4494 1619.12 -65.1296C1607.22 57.3905 1595.96 173.124 1598.45 295.002C1598.6 302.603 1598.98 310.331 1599.34 317.801C1601.08 353.983 1602.73 388.16 1582.67 419.243C1577.53 427.201 1572.55 434.239 1567.73 441.044C1552.7 462.279 1539.71 480.62 1534.28 511.479C1529.11 540.883 1518.47 564.211 1507.21 588.907C1500.89 602.756 1494.36 617.077 1488.72 632.807C1472.94 676.82 1480.96 718.522 1497.87 767.592C1530.15 861.261 1527.16 951.858 1523.99 1047.77C1523.18 1072.37 1522.34 1097.81 1522.13 1123.36H1522.59C1522.8 1097.82 1523.64 1072.38 1524.45 1047.79V1047.78ZM1587.66 1112.26C1587.62 1096.23 1587.71 1080.26 1587.79 1064.81C1588.33 967.891 1588.84 876.35 1556.79 780.31C1542.27 736.781 1529.47 690.031 1546.11 639.18C1551.48 622.754 1557.77 607.453 1563.86 592.66C1574.67 566.395 1584.88 541.585 1590.02 511.603C1595.3 480.838 1608.27 462.552 1623.29 441.377C1628.13 434.544 1633.15 427.479 1638.32 419.479C1661.8 383.094 1655.49 344.922 1648.82 304.508C1648.51 302.674 1648.21 300.833 1647.91 298.986C1646.4 289.746 1644.73 280.467 1643.13 271.49C1635.82 230.565 1628.91 191.897 1633.66 150.479C1639.88 96.201 1656.31 41.8293 1672.21 -10.7519C1685.19 -53.7 1698.62 -98.1452 1706.38 -142.243L1705.94 -142.321C1698.17 -98.2511 1684.76 -53.8361 1671.76 -10.8819C1655.86 41.7204 1639.42 96.1103 1633.19 150.428C1628.43 191.909 1635.36 230.607 1642.68 271.574C1644.29 280.548 1645.95 289.827 1647.47 299.067C1647.77 300.912 1648.07 302.753 1648.37 304.59C1655.03 344.913 1661.33 383.001 1637.94 419.24C1632.8 427.231 1627.77 434.29 1622.92 441.123C1607.87 462.34 1594.86 480.665 1589.57 511.534C1584.43 541.476 1574.24 566.25 1563.44 592.494C1557.35 607.296 1551.05 622.6 1545.67 639.044C1538.31 661.546 1536.16 684.841 1539.08 710.256C1541.95 735.091 1549.42 759.677 1556.35 780.458C1588.38 876.429 1587.87 967.933 1587.33 1064.81C1587.25 1080.26 1587.16 1096.24 1587.2 1112.27L1587.66 1112.26Z" fill="url(#paint0_linear_32_7)"/>
</g>
</g>
<defs>
<linearGradient id="paint0_linear_32_7" x1="-17.3883" y1="-123.463" x2="1733.27" y2="1106.27" gradientUnits="userSpaceOnUse">
<stop stop-color="#FF2A1D"/>
<stop offset="0.05" stop-color="#FF2A1D"/>
<stop offset="0.15" stop-color="#FF2A1D"/>
<stop offset="0.3" stop-color="#FF2A1D"/>
<stop offset="0.48" stop-color="#FF2A1D"/>
<stop offset="0.5" stop-color="#FF2A1D"/>
<stop offset="0.65" stop-color="#FF2A1D"/>
<stop offset="0.77" stop-color="#FF2A1D"/>
<stop offset="0.88" stop-color="#FF2A1D"/>
<stop offset="0.96" stop-color="#FF2A1D"/>
<stop offset="1" stop-color="#FF2A1D"/>
</linearGradient>
<clipPath id="clip0_32_7">
<rect width="1440" height="828" fill="white" transform="translate(0.175293 0.329102)"/>
</clipPath>
</defs>
</svg>
