<svg width="85" height="21" viewBox="0 0 85 21" fill="none" xmlns="http://www.w3.org/2000/svg">
<g clip-path="url(#clip0_31_446)">
<path d="M19.1358 18.2278H20.2072V17.9823H19.1358V17.019H20.5706V16.7666H18.8623V19.6032H20.652V19.3542H19.1358V18.2278Z" fill="white"/>
<path d="M26.9763 18.039C26.3739 17.8467 26.1836 17.7402 26.1836 17.4208C26.1836 17.1598 26.4155 16.9572 26.798 16.9572C27.158 16.9572 27.409 17.1032 27.5509 17.4706L27.7828 17.3624C27.6478 16.983 27.338 16.71 26.8015 16.71C26.2649 16.71 25.9118 17.0327 25.9118 17.438C25.9118 17.905 26.2251 18.0716 26.8396 18.2622C27.447 18.4545 27.589 18.6039 27.589 18.8992C27.589 19.2186 27.3103 19.4126 26.8811 19.4126C26.4795 19.4126 26.1888 19.21 26.0624 18.8151L25.8184 18.9027C25.9534 19.3628 26.3324 19.6547 26.869 19.6547C27.4401 19.6547 27.8625 19.3525 27.8625 18.8803C27.8625 18.4081 27.5682 18.2244 26.9728 18.0373L26.9763 18.039Z" fill="white"/>
<path d="M24.2814 17.5341C24.2814 17.0362 23.9266 16.7666 23.288 16.7666H22.3291V19.6032H22.5991V18.3308H23.3105L24.0097 19.6032H24.3195L23.596 18.2999C24.0097 18.2244 24.2797 17.9926 24.2797 17.5341H24.2814ZM23.2689 18.0904H22.6008V17.0173H23.2655C23.7449 17.0173 24.008 17.1564 24.008 17.5461C24.008 17.9565 23.7414 18.0904 23.2707 18.0904H23.2689Z" fill="white"/>
<path d="M22.0158 13.0358C19.7899 13.0358 19.4611 11.3513 19.4611 8.77228V8.63492H25.1918C25.1918 6.34092 23.911 4.76465 21.5155 4.76465C18.9038 4.76465 17.4932 6.76159 17.4932 9.1655C17.4932 11.5694 18.8155 13.5663 21.4983 13.5663C23.1581 13.5663 24.5047 12.9448 25.2091 11.1247L24.8041 10.9942C24.3177 12.1309 23.5043 13.0358 22.0158 13.0358ZM19.4767 7.71801C19.5701 6.44222 20.0392 5.20592 21.3944 5.20592C22.8361 5.20592 23.1529 6.32374 23.1858 7.5068C23.1893 7.61671 23.1892 7.99962 23.1892 8.10435H19.4611C19.4611 7.98932 19.468 7.8365 19.4767 7.71801Z" fill="white"/>
<path d="M64.6177 12.9319V7.17797C64.6177 5.46606 63.7713 4.72942 62.0803 4.72942C60.6645 4.72942 59.6296 5.41454 59.0948 6.57872H59.06V4.69336C58.8281 4.88224 58.5132 5.10545 57.7465 5.10545H55.9205V5.53303H57.3015V12.9301H55.8167V13.3577H60.4238V12.9301H59.06V8.47778C59.06 6.88606 59.8874 5.34415 61.4486 5.34415C62.3262 5.34415 62.8574 5.83521 62.8574 7.12472V12.9301H61.4935V13.3577H65.9816V12.9301H64.6177V12.9319Z" fill="white"/>
<path d="M19.0059 1.45388V1.03492H15.4975V1.45388H17.0483L16.6433 2.8533L14.2098 10.235H14.1752L11.4422 2.81724L10.9663 1.45217H12.7109V1.0332H7.31426V1.45217H8.81315L9.69585 3.81313L7.4562 10.2333H7.42156L4.72324 2.8533L4.24728 1.45388H5.79807V1.03492H0.842773V1.45388H2.04222L2.67743 3.11601L6.53886 13.5421H6.89193C6.89193 13.5421 9.2545 6.82316 10.0126 4.6545L13.3461 13.5421H13.7165L17.2076 2.99238L17.7545 1.45388H19.0059Z" fill="white"/>
<path d="M29.8426 13.0938C28.155 13.0938 27.1615 12.0034 26.7929 10.4048H26.3723L26.9383 13.4732C27.1217 13.2603 27.3606 13.1848 27.6012 13.1848C28.0875 13.1848 28.7054 13.5539 29.801 13.5539C31.5612 13.5539 32.8906 12.5821 32.8906 10.9285C32.8906 7.61975 28.1049 8.49371 28.1049 6.35426C28.1049 5.67429 28.5929 5.16947 29.4756 5.16947C30.8741 5.16947 31.6565 6.14993 31.9922 7.31411H32.4058L31.9281 4.69214C31.7671 4.87071 31.5545 4.96859 31.2947 4.96859C30.7132 4.96859 30.3549 4.7299 29.4653 4.7299C27.9439 4.7299 26.7635 5.55065 26.7635 7.04108C26.7635 10.0906 31.4748 9.43984 31.4748 11.6308C31.4748 12.6233 30.7461 13.0938 29.8426 13.0938Z" fill="white"/>
<path d="M6.4386 18.6073C6.4386 19.0795 6.20319 19.4092 5.67356 19.4092C5.14393 19.4092 4.9051 19.064 4.9051 18.6004V16.7683H4.62988V18.6468C4.62988 19.21 4.96567 19.6547 5.67011 19.6547C6.37455 19.6547 6.71378 19.2014 6.71378 18.6382V16.7666H6.4386V18.6073Z" fill="white"/>
<path d="M55.8652 16.7549L54.7974 19.6035H55.0656L55.3893 18.7312H56.6564L56.9798 19.6035H57.2673L56.1994 16.7549H55.8671H55.8652ZM55.4776 18.4891L56.0158 17.0399H56.0262L56.5644 18.4891H55.4776Z" fill="white"/>
<path d="M16.0755 19.2443H16.0668L15.2135 16.7666H14.9297L15.9353 19.6152H16.1949L17.1988 16.7666H16.9322L16.0755 19.2443Z" fill="white"/>
<path d="M10.553 19.1052H10.5444L8.96758 16.7666H8.67334V19.6032H8.93298V17.1924H8.93991L10.5669 19.6032H10.8109V16.7666H10.553V19.1052Z" fill="white"/>
<path d="M13.2147 16.7666H12.9395V19.6032H13.2147V16.7666Z" fill="white"/>
<path d="M47.5227 11.1247L47.1177 10.9942C46.6311 12.1309 45.8177 13.0358 44.3292 13.0358C42.1034 13.0358 41.7747 11.3513 41.7747 8.77228V8.63492H47.5053C47.5053 6.34092 46.2245 4.76465 43.8292 4.76465C41.2172 4.76465 39.8066 6.76159 39.8066 9.1655C39.8066 11.5694 41.129 13.5663 43.8118 13.5663C45.4716 13.5663 46.818 12.9448 47.5227 11.1247ZM41.7903 7.71629C41.8837 6.4405 42.3526 5.20422 43.7079 5.20422C45.1497 5.20422 45.4664 6.32204 45.4994 7.5051C45.5028 7.61498 45.5028 7.99789 45.5028 8.10265H41.7747C41.7747 7.98759 41.7814 7.83477 41.7903 7.71629Z" fill="white"/>
<path d="M52.7138 19.1052H52.7049L51.1281 16.7666H50.834V19.6032H51.0936V17.1924H51.1022L52.7293 19.6032H52.9716V16.7666H52.7138V19.1052Z" fill="white"/>
<path d="M43.8502 19.4119C43.2928 19.4119 42.9311 18.9517 42.9311 18.1653C42.9311 17.4373 43.2894 16.9616 43.8432 16.9616C44.2794 16.9616 44.4923 17.1952 44.6206 17.6433L44.8836 17.5781C44.7485 17.0526 44.4266 16.7109 43.8484 16.7109C43.1336 16.7109 42.6577 17.3136 42.6577 18.1722C42.6577 19.0771 43.1251 19.6557 43.8484 19.6557C44.4196 19.6557 44.7919 19.3072 44.9303 18.7474L44.6673 18.6907C44.5442 19.1664 44.2778 19.4119 43.852 19.4119H43.8502Z" fill="white"/>
<path d="M29.874 16.7666H29.6006V19.6032H29.874V16.7666Z" fill="white"/>
<path d="M59.8374 16.7666H59.1138V19.6032H59.8374C60.7565 19.6032 61.2602 19.1173 61.2602 18.1814C61.2602 17.2457 60.7684 16.7666 59.8374 16.7666ZM59.8771 19.3662H59.3823V17.0121H59.8685C60.5851 17.0121 60.9917 17.3744 60.9917 18.1814C60.9917 18.9885 60.5903 19.3662 59.8771 19.3662Z" fill="white"/>
<path d="M55.361 5.921C55.361 5.24275 54.8558 4.72936 53.9159 4.72936C52.5124 4.72936 51.8147 5.97939 51.4531 6.97184H51.4305V4.65894C51.1519 4.8856 50.8681 5.10539 50.1237 5.10539H48.1853V5.53294H49.6704V12.9301H48.1853V13.3576H52.8618V12.9301H51.4289V9.28303C51.4289 7.34272 52.3893 5.23587 53.6233 5.23587C53.7153 5.23587 53.7776 5.24618 53.8277 5.27024C53.6166 5.43851 53.4797 5.69778 53.4797 5.98797C53.4797 6.52712 53.897 6.91003 54.4092 6.91003C54.9682 6.91003 55.3577 6.44815 55.3577 5.91927L55.361 5.921Z" fill="white"/>
<path d="M47.5921 16.7549L46.5239 19.6035H46.7924L47.1159 18.7312H48.3829L48.7067 19.6035H48.9938L47.926 16.7549H47.5936H47.5921ZM47.2042 18.4891L47.7424 17.0399H47.7528L48.2913 18.4891H47.2042Z" fill="white"/>
<path d="M35.8416 18.1196L35.0385 16.7666H34.7407L35.6977 18.3635V19.6032H35.9729V18.3635L36.9354 16.7666H36.6413L35.8416 18.1196Z" fill="white"/>
<path d="M31.3726 17.019H32.2951V19.6032H32.5703V17.019H33.4946V16.7666H31.3726V17.019Z" fill="white"/>
<path d="M37.7713 12.8788C37.1133 12.8788 36.8418 12.4701 36.8418 11.4588V5.53487H38.9653V5.10733H36.8418V2.27759H36.4783C36.2428 4.10284 35.3185 5.03863 33.6467 5.1966V5.53315H35.0451V11.3884C35.0451 12.4839 35.2598 13.5296 37.0547 13.5296C38.1864 13.5296 38.8737 13.011 39.232 12.3396L39.3703 12.0666L38.9965 11.8898C38.7716 12.3877 38.4133 12.8771 37.7728 12.8771L37.7713 12.8788Z" fill="white"/>
<path d="M63.8335 16.7549L62.7656 19.6035H63.0341L63.3576 18.7312H64.6246L64.9484 19.6035H65.2355L64.1677 16.7549H63.8353H63.8335ZM63.4459 18.4891L63.9841 17.0399H63.9945L64.533 18.4891H63.4459Z" fill="white"/>
<path d="M39.7099 17.9102C39.5419 17.9102 39.4207 18.0303 39.4207 18.2003C39.4207 18.3703 39.5419 18.4871 39.7099 18.4871C39.8776 18.4871 40.0022 18.3669 40.0022 18.2003C40.0022 18.0338 39.8813 17.9102 39.7099 17.9102Z" fill="white"/>
<path d="M83.9129 13.954C82.696 16.77 80.3388 18.8872 76.9706 20.2145L76.7974 20.2849L76.6227 20.2145C73.2581 18.8872 70.9024 16.77 69.684 13.954C68.7025 11.6858 68.7526 9.79186 68.7526 8.72214V1.46406C70.6186 0.808142 73.5037 0.385742 76.7421 0.385742C79.9805 0.385742 82.9764 0.80986 84.8424 1.46406V8.61911C84.8424 9.6442 84.8925 11.6875 83.9111 13.954H83.9129Z" fill="#0E0E0E"/>
<path d="M83.9129 13.954C82.696 16.77 80.3388 18.8872 76.9706 20.2145L76.7974 20.2849L76.6227 20.2145C73.2581 18.8872 70.9024 16.77 69.684 13.954C68.7025 11.6858 68.7526 9.79186 68.7526 8.72214V1.46406C70.6186 0.808142 73.5037 0.385742 76.7421 0.385742C79.9805 0.385742 82.9764 0.80986 84.8424 1.46406V8.61911C84.8424 9.6442 84.8925 11.6875 83.9111 13.954H83.9129ZM76.7714 7.76914C76.652 7.48756 76.3597 7.39998 75.9684 7.39998C75.6412 7.39998 75.2225 7.45665 74.7985 7.46008V9.55147C75.6086 9.47247 76.5032 9.37805 76.7803 9.78671H76.82C77.0986 9.37805 77.9935 9.47247 78.8036 9.55147V7.46008C78.3689 7.46008 77.9572 7.39998 77.63 7.39998C77.2388 7.39998 76.9498 7.48756 76.8285 7.76914H76.7714ZM77.6215 8.16235H76.9394L76.8823 8.4285H76.9602L77.0017 8.32032H77.4501L77.0069 9.23726L77.09 9.26986L77.6371 8.20356L77.6404 8.19499L77.6249 8.16235H77.6215ZM75.5255 8.28771H75.6397V8.20186H75.6205C75.5893 8.20186 75.5582 8.20186 75.527 8.20356C75.4699 8.20356 75.4146 8.20702 75.3504 8.20702C75.2933 8.20702 75.2466 8.20702 75.1879 8.20356C75.1531 8.20356 75.1204 8.20356 75.0841 8.20186H75.0648V8.28771H75.1791C75.2554 8.28771 75.264 8.28771 75.264 8.38729V8.79423C75.264 8.87495 75.2554 8.88353 75.1204 8.88353H75.0648V8.96938H75.0841C75.1238 8.96938 75.1601 8.96765 75.1965 8.96765C75.2518 8.96765 75.2933 8.96595 75.3437 8.96595C75.4164 8.96595 75.4769 8.96595 75.534 8.96938C75.5633 8.96938 75.5911 8.96938 75.6205 8.97111H75.6397V8.88526H75.5841C75.4509 8.88526 75.4424 8.87665 75.4424 8.79596V8.38902C75.4424 8.28941 75.4509 8.28941 75.5255 8.28941V8.28771ZM76.6245 8.67062C76.6245 8.86465 76.4687 8.98826 76.228 8.98826C76.0136 8.98826 75.8697 8.87496 75.8697 8.71353C75.8697 8.55214 76.0032 8.46456 76.093 8.4285C75.972 8.35295 75.9027 8.25508 75.9027 8.14174C75.9027 8.02844 75.9928 7.85671 76.2662 7.85671C76.491 7.85671 76.5845 7.98377 76.5845 8.10226C76.5845 8.22074 76.5014 8.31862 76.3752 8.37871C76.517 8.44911 76.6227 8.53326 76.6227 8.66889L76.6245 8.67062ZM76.2974 8.33923C76.3701 8.29114 76.4617 8.22589 76.4617 8.12114C76.4617 7.95632 76.32 7.93914 76.2592 7.93914C76.133 7.93914 76.0499 8.00095 76.0499 8.09538C76.0499 8.19671 76.126 8.25338 76.2992 8.33923H76.2974ZM76.4602 8.74789C76.4602 8.64141 76.4098 8.5882 76.1779 8.47314C76.0759 8.5195 75.998 8.60192 75.998 8.69638C75.998 8.85777 76.1449 8.90241 76.2317 8.90241C76.3734 8.90241 76.4602 8.84405 76.4602 8.74789ZM78.5351 8.67062C78.5351 8.86465 78.3793 8.98826 78.1389 8.98826C77.9242 8.98826 77.7806 8.87496 77.7806 8.71353C77.7806 8.55214 77.9138 8.46456 78.0039 8.4285C77.8827 8.35295 77.8136 8.25508 77.8136 8.14174C77.8136 8.02844 77.9034 7.85671 78.1768 7.85671C78.4019 7.85671 78.4954 7.98377 78.4954 8.10226C78.4954 8.22074 78.4123 8.31862 78.2859 8.37871C78.4279 8.44911 78.5336 8.53326 78.5336 8.66889L78.5351 8.67062ZM78.208 8.33923C78.2825 8.29114 78.3726 8.22589 78.3726 8.12114C78.3726 7.95632 78.2306 7.93914 78.1701 7.93914C78.0421 7.93914 77.9606 8.00095 77.9606 8.09538C77.9606 8.19671 78.0369 8.25338 78.208 8.33923ZM78.3726 8.74789C78.3726 8.64141 78.3222 8.5882 78.0904 8.47314C77.9883 8.5195 77.9105 8.60192 77.9105 8.69638C77.9105 8.85777 78.0577 8.90241 78.1441 8.90241C78.2859 8.90241 78.3726 8.84405 78.3726 8.74789ZM69.3846 6.31823V8.60365C69.3758 9.99274 69.3586 13.3599 71.8924 16.2772L76.801 12.3074L69.395 6.3165H69.3861L69.3846 6.31823ZM84.2175 6.31823H84.2071L76.801 12.3091L81.7094 16.279C84.2434 13.3617 84.226 9.99447 84.2175 8.60365V6.31823ZM84.2037 5.44423L82.4764 6.01429L82.4675 6.00402C82.6789 5.85977 82.8518 5.68635 83.0232 5.28799C83.1114 5.08192 83.2067 4.93426 83.3106 4.83295C83.4196 4.7265 83.5391 4.66641 83.6237 4.6372C83.4144 4.58056 83.1893 4.60802 82.9541 4.71105C82.568 4.88105 82.3689 5.20729 81.9571 5.26565L82.8017 3.76665L81.2717 4.74538L81.2647 4.74023C81.4345 4.54792 81.5591 4.33671 81.6263 3.90574C81.6611 3.68423 81.7164 3.51768 81.791 3.39405C81.8704 3.26355 81.9709 3.1777 82.0454 3.12791C81.8273 3.12447 81.6229 3.20174 81.4204 3.36143C81.0866 3.62241 80.9531 3.97441 80.581 4.15129L81.0243 2.48744L79.7866 3.81302C79.9026 3.58292 79.9735 3.34769 79.9301 2.91155C79.9078 2.68834 79.9197 2.51491 79.9613 2.37583C80.0065 2.22988 80.0807 2.1217 80.1415 2.05645C79.9301 2.10796 79.7417 2.20412 79.5859 2.40674C79.3262 2.74328 79.3021 3.15366 78.9713 3.41294L78.9835 1.68728L78.1286 3.25668C78.1805 3.01115 78.189 2.76904 78.0403 2.36724C77.9624 2.15604 77.9294 1.98605 77.9364 1.8401C77.9434 1.68728 77.9902 1.56365 78.0317 1.48467C77.8396 1.58598 77.6853 1.72506 77.5852 1.96202C77.4172 2.35522 77.4828 2.74843 77.2284 3.09528L76.8062 1.41427L76.3667 3.1674H76.363C76.3545 2.90984 76.3007 2.66945 76.0499 2.30886C75.9216 2.12342 75.8474 1.96545 75.8163 1.82465C75.7833 1.67526 75.797 1.54477 75.8178 1.45891C75.6568 1.60486 75.5462 1.79718 75.5081 2.04958C75.4457 2.46855 75.6153 2.82227 75.4543 3.20689L74.629 1.69072L74.6409 3.47989C74.5666 3.23952 74.4539 3.02316 74.1268 2.73985C73.9554 2.59218 73.8449 2.45825 73.7789 2.32775C73.7098 2.1921 73.6906 2.05989 73.6891 1.97232C73.5712 2.15261 73.5159 2.36209 73.5437 2.61794C73.5886 3.04205 73.8223 3.33739 73.7737 3.76492L72.5864 2.49431L73.0415 4.19935C72.912 3.99332 72.7458 3.81817 72.372 3.63271C72.1694 3.53314 72.0274 3.43011 71.9321 3.32022C71.8319 3.20517 71.78 3.08326 71.7555 2.99741C71.6865 3.20174 71.6829 3.41638 71.773 3.65677C71.9236 4.05856 72.2266 4.2852 72.287 4.71962L70.8123 3.77523L71.6691 5.29486C71.4944 5.13517 71.2919 5.01153 70.8954 4.92741C70.6739 4.87932 70.5111 4.81577 70.3902 4.73165C70.2637 4.6458 70.1825 4.53935 70.1372 4.46377C70.1217 4.67841 70.1702 4.8862 70.3175 5.09568C70.5649 5.44938 70.9473 5.59189 71.0842 6.00571L69.4106 5.45283L70.25 6.3268H83.3677L84.2071 5.45453L84.2037 5.44423ZM78.4936 16.3442C78.5076 16.3322 78.5544 16.279 78.5388 16.2704C78.5143 16.2583 78.4642 16.2738 78.3934 16.2738C78.3222 16.2738 78.248 16.2292 78.2376 16.1553C78.2254 16.0574 78.2703 15.9957 78.3482 15.9287C78.3741 15.9063 78.4435 15.8754 78.4624 15.8428C78.4713 15.7913 78.485 15.7295 78.5024 15.6814C78.5284 15.6127 78.5715 15.5492 78.6182 15.4685C78.6426 15.4256 78.6582 15.3397 78.6374 15.3157C78.5733 15.3655 78.3586 15.5252 78.2513 15.5028C78.2013 15.4925 78.1976 15.4925 78.1545 15.5097C78.0644 15.5458 77.9694 15.5664 77.8741 15.4651C77.8152 15.4599 77.7528 15.5698 77.7217 15.6127C77.6801 15.6694 77.6404 15.7089 77.5833 15.7501C77.5366 15.7827 77.4449 15.8291 77.3842 15.7965C77.3185 15.7604 77.3185 15.6608 77.3203 15.611C77.3237 15.5286 77.3634 15.3277 77.4465 15.1251C77.4569 15.101 77.5228 14.9534 77.5228 14.9087C77.5228 14.8967 77.514 14.8898 77.5021 14.8898C77.4743 14.8898 77.3912 14.9362 77.3463 14.9362C77.2944 14.9362 77.2528 14.9242 77.218 14.871C77.1609 14.7817 77.1713 14.5344 77.1401 14.4606C77.083 14.4777 77.0362 14.476 76.9965 14.4211C76.9498 14.3558 76.9064 14.2769 76.8771 14.1979C76.8649 14.167 76.8337 14.0742 76.8148 14.0296C76.7803 14.1034 76.7662 14.1498 76.7439 14.2167C76.7317 14.2545 76.6987 14.3352 76.6831 14.3833C76.6676 14.4331 76.626 14.488 76.5863 14.488C76.5585 14.488 76.5362 14.4812 76.524 14.4726C76.5084 14.4726 76.5014 14.4915 76.4895 14.5241C76.4687 14.579 76.4687 14.6237 76.4547 14.6803C76.4305 14.7834 76.4082 14.907 76.3129 14.919C76.2628 14.9259 76.2384 14.9087 76.1987 14.8898C76.1034 14.8435 76.119 14.9328 76.1449 15.0118C76.1623 15.065 76.2143 15.1594 76.2525 15.2745C76.2888 15.3878 76.3649 15.6385 76.3667 15.7072C76.3667 15.7879 76.2558 15.86 76.152 15.7741C76.1226 15.7501 76.0551 15.6728 75.9962 15.6574C75.9183 15.6368 75.837 15.575 75.8074 15.532C75.7903 15.532 75.7139 15.5647 75.6932 15.5715C75.4839 15.6437 75.3178 15.587 75.2484 15.5526C75.1931 15.5252 75.129 15.4977 75.0926 15.4427C75.0823 15.429 75.0685 15.4067 75.0459 15.4118C75.0218 15.417 75.0199 15.4634 75.0199 15.4805C75.0199 15.5372 75.0407 15.5956 75.0667 15.6453C75.096 15.7003 75.1049 15.7123 75.1446 15.7553C75.1791 15.7947 75.162 15.8291 75.1324 15.8411C75.1324 15.8857 75.1843 15.8926 75.2121 15.9149C75.2451 15.9407 75.2829 15.9733 75.3022 16.0077C75.3263 16.0489 75.3452 16.0729 75.3471 16.1296C75.3471 16.1725 75.3037 16.2326 75.1879 16.2223C75.162 16.303 75.2554 16.3614 75.3178 16.394C75.3523 16.4129 75.3905 16.4232 75.4216 16.4455C75.4543 16.4696 75.4977 16.5022 75.4891 16.5279C75.5374 16.5468 75.5945 16.5279 75.6586 16.5382C75.6984 16.5451 75.7555 16.5812 75.7866 16.6103C75.8196 16.643 75.8386 16.6842 75.8386 16.734C75.8386 16.916 75.5392 16.9606 75.5392 16.9606C75.6171 17.0688 75.7591 17.0946 75.9131 17.0946C75.9806 17.0946 76.0221 17.0757 76.0741 17.086C76.1122 17.0928 76.1434 17.1272 76.1434 17.165C76.1675 17.1907 76.2161 17.1976 76.261 17.1976C76.2955 17.1976 76.3129 17.1924 76.3441 17.1787C76.3823 17.1615 76.6505 17.043 76.7161 17.0379L76.685 18.0527H76.9965C76.9965 18.0527 76.9654 17.1942 76.9602 17.0345C76.9999 17.0465 77.0225 17.0705 77.0934 17.1134C77.1505 17.1495 77.3237 17.2216 77.3912 17.1873C77.4086 17.1117 77.5262 17.134 77.6957 17.1512C77.7357 17.1547 77.8863 17.1444 77.926 17.1289C77.9987 17.0997 78.0714 17.0843 78.1267 17.0139C77.9709 16.9898 77.8723 16.9074 77.8533 16.849C77.8344 16.7907 77.8307 16.7288 77.8827 16.6997C77.9157 16.6807 77.9105 16.6997 77.9331 16.667C77.9538 16.6361 77.9902 16.5897 78.0281 16.5743C78.0733 16.5571 78.2324 16.5846 78.2462 16.5193C78.2202 16.4902 78.2565 16.4575 78.2755 16.4472C78.3033 16.4318 78.3222 16.4249 78.3518 16.4146C78.3934 16.3991 78.4557 16.3717 78.4936 16.339V16.3442ZM72.5174 14.2047C73.5956 14.2047 74.4695 13.3342 74.4713 12.2593C74.4732 11.1827 73.6023 10.3087 72.5241 10.3053C71.4477 10.3053 70.5719 11.1741 70.5701 12.2507C70.5682 13.3273 71.4406 14.2013 72.5189 14.2047H72.5174ZM73.7254 11.4213C73.7288 11.4797 73.6906 11.6617 73.6683 11.6892C73.6475 11.6961 73.5938 11.6944 73.5489 11.6944C73.5229 11.6944 73.514 11.6995 73.4985 11.7253C73.4484 11.8077 73.405 11.8661 73.3531 11.964C73.3427 12.079 73.3375 12.1666 73.3167 12.3005C73.3082 12.3486 73.3048 12.3829 73.2685 12.4344C73.2285 12.4911 73.1316 12.5787 73.0901 12.6096C73.0433 12.6456 73.0763 12.6954 73.1127 12.6851C73.1316 12.68 73.2581 12.625 73.2789 12.6199C73.3445 12.5993 73.438 12.5443 73.5296 12.6113C73.5867 12.6508 73.7807 12.7881 73.8241 12.8277C73.8775 12.874 73.8968 12.9083 73.9157 12.9564C73.9554 13.056 73.9554 13.1865 73.9521 13.2071C73.9157 13.2226 73.708 13.2157 73.6579 13.1968C73.6423 13.1642 73.6491 13.0457 73.6042 13.0011C73.5696 12.9684 73.5418 12.9444 73.5003 12.9221C73.4191 12.8774 73.3842 12.8671 73.3219 12.8963C73.2544 12.929 73.1057 13.0303 72.9966 13.0869C72.9673 13.2346 72.8115 13.3943 72.7388 13.499C72.5467 13.657 72.3442 13.7583 72.1591 13.8888C71.9443 13.8459 71.5686 13.6656 71.4128 13.5093C71.605 13.2947 71.78 13.159 71.9184 13.0268C71.9736 12.8671 72.211 12.3984 72.1554 12.3331C72.0189 12.1734 71.7348 11.6961 71.8594 11.5742C71.6016 11.6858 71.2051 11.7854 70.9543 11.7545C70.8694 11.7442 70.8661 11.569 70.9733 11.569C71.3609 11.569 71.7384 11.4471 71.7384 11.2445C71.7384 11.1106 71.6034 11.0419 71.5582 11.0076C71.5011 10.9629 71.6086 10.8908 71.7055 10.92C71.8075 10.9509 71.9046 11.011 71.9513 11.138C71.9651 11.1758 71.9685 11.2411 72.0204 11.2411C72.0916 11.2411 72.4187 11.0677 72.3787 10.8341C72.3649 10.7569 72.3078 10.7019 72.2592 10.6676C72.2162 10.6367 72.2021 10.6229 72.2021 10.6023C72.2021 10.5731 72.2681 10.5508 72.3148 10.5508C72.4169 10.5508 72.5641 10.6624 72.5986 10.7998C72.6279 10.9234 72.6072 11.1535 72.2733 11.3578C72.2369 11.3801 72.2333 11.4076 72.2733 11.4007C72.3909 11.3784 72.8323 11.2582 72.8842 11.2634C72.9187 11.308 72.9465 11.4076 72.9309 11.4609C72.9187 11.5055 72.6453 11.6566 72.4862 11.7717C72.6817 11.9056 72.7907 12.0137 72.8304 12.0533C72.8616 12.0927 72.9102 12.182 72.9257 12.2112C72.9395 12.2353 72.9896 12.2267 72.9966 12.2061C73.0259 12.1133 73.0797 11.9193 73.0971 11.8884C73.1127 11.8592 73.3271 11.5364 73.3549 11.5038C73.4016 11.4506 73.4606 11.4385 73.5229 11.4282C73.5504 11.4248 73.6924 11.4162 73.7254 11.4179V11.4213ZM81.064 14.2047C82.1422 14.2047 83.0164 13.3342 83.018 12.2593C83.0198 11.1827 82.1474 10.3087 81.071 10.3053C79.9943 10.3053 79.1185 11.1741 79.1167 12.2507C79.1152 13.3273 79.9872 14.2013 81.0658 14.2047H81.064ZM81.9431 10.9732C81.9883 10.9577 82.2305 10.8788 82.3136 10.9732C82.1715 11.0487 82.0106 11.1672 81.9137 11.284C81.7925 11.1947 81.4742 11.0968 81.36 11.1054C81.3444 10.9457 81.2839 10.7672 81.2164 10.6143C81.36 10.5903 81.4864 10.7895 81.5105 10.829C81.5261 10.8564 81.5451 10.8616 81.5695 10.8461C81.5762 10.841 81.7216 10.7569 81.7528 10.738C81.7754 10.7242 81.7977 10.7311 81.8081 10.7551C81.8221 10.786 81.8878 10.9457 81.893 10.956C81.9034 10.9783 81.9208 10.9852 81.9449 10.9767L81.9431 10.9732ZM81.2613 11.217C81.2802 11.2119 81.3047 11.2102 81.327 11.2102C81.5035 11.2102 81.7839 11.3183 81.8774 11.3939C81.9156 11.4815 81.9519 11.7579 81.9415 11.8077C81.8792 12.024 81.6715 12.3812 81.6715 12.5632C81.6715 12.7212 81.7027 12.8757 81.8704 13.0835C81.9587 13.1934 82.1196 13.3565 82.2201 13.4423C82.0539 13.6123 81.8013 13.7617 81.6456 13.8098C81.5695 13.7428 81.1437 13.4217 81.031 13.3599C80.8477 13.2363 80.7179 13.0852 80.6934 12.9187C80.6036 12.8946 80.1794 12.8019 80.0392 12.771C79.9216 12.747 79.8785 12.7367 79.8229 12.8122C79.7676 12.886 79.7331 12.9616 79.669 12.9496C79.6067 12.9375 79.5929 12.8534 79.5669 12.747C79.5514 12.6851 79.5098 12.6491 79.4612 12.6113C79.3919 12.5581 79.3488 12.5186 79.354 12.4791C79.3592 12.4447 79.3937 12.4276 79.5165 12.3932C79.5773 12.376 79.6067 12.3589 79.636 12.3194C79.6793 12.2627 79.7398 12.1494 79.7969 12.1597C79.8507 12.1683 79.8696 12.2593 79.8956 12.3331C79.9197 12.407 79.9301 12.4482 80.034 12.4619C80.235 12.4877 80.5862 12.5323 80.6192 12.4258C80.4011 12.4018 80.2954 12.2662 80.2625 12.1769C80.2313 12.0893 80.1415 11.6411 80.1363 11.6102C80.1293 11.5639 80.0584 11.5295 79.9598 11.4883C79.8922 11.4591 79.8422 11.4282 79.8422 11.3904C79.8422 11.3527 79.9112 11.3115 79.9961 11.2668C80.034 11.2462 80.0792 11.2222 80.1067 11.1363C80.1189 11.1003 80.1482 10.9887 80.1968 10.9852C80.2591 10.9818 80.2799 11.047 80.3248 11.1106C80.3507 11.1483 80.3733 11.1896 80.4686 11.193C80.5206 11.193 80.6348 11.1964 80.6519 11.2479C80.6641 11.2857 80.6192 11.3321 80.5777 11.3716C80.4772 11.4626 80.4564 11.4986 80.4564 11.5622C80.4564 11.6291 80.5881 11.9451 80.6727 12.0601C80.7038 12.0773 80.9064 12.1288 81.0606 12.1185C81.1452 12.1133 81.2457 11.8764 81.2631 11.7974C81.2527 11.794 81.0224 11.7527 80.9705 11.7373C80.896 11.7167 80.8648 11.4557 80.8737 11.4351C80.9116 11.4042 81.2164 11.2325 81.2647 11.2205L81.2613 11.217ZM82.3948 13.2483C82.1337 13.0062 81.9987 12.8156 81.9987 12.5409C81.9987 12.1649 82.2806 11.9245 82.3032 11.6274C82.3102 11.521 82.2895 11.4265 82.2443 11.3355C82.4849 11.351 82.7428 11.7236 82.5143 12.0258C82.6615 12.0223 82.7654 12.1992 82.6337 12.3537C82.6129 12.3057 82.5576 12.285 82.5039 12.285C82.3499 12.285 82.2461 12.4224 82.2461 12.6044C82.2461 12.7624 82.3377 12.9152 82.5127 13.08C82.4831 13.1367 82.4434 13.19 82.3967 13.2466L82.3948 13.2483Z" fill="white"/>
</g>
<defs>
<clipPath id="clip0_31_446">
<rect width="84" height="20" fill="white" transform="translate(0.842773 0.385742)"/>
</clipPath>
</defs>
</svg>
