<svg width="53" height="61" viewBox="0 0 53 61" fill="none" xmlns="http://www.w3.org/2000/svg">
<path d="M51.9975 35.0528L47.0865 28.2858C46.9675 28.1209 46.8046 27.9857 46.6077 27.8997C46.6053 27.8986 37.2692 24.7685 37.2692 24.7685L39.4282 23.6448C39.8158 23.4431 40.0589 23.0425 40.0589 22.6056V8.55438C40.0591 8.54606 40.0592 8.52719 40.0592 8.50071C40.0595 8.07215 39.8144 7.68063 39.4285 7.49454L39.4282 7.49442L27.022 1.03764C26.683 0.861152 26.2792 0.861152 25.9402 1.03764L13.5341 7.49442L13.5338 7.49454C13.1537 7.69668 12.9116 8.08856 12.9037 8.5191C12.9034 8.53598 12.9033 8.54805 12.9034 8.55438V22.6056C12.9034 23.0426 13.1465 23.4431 13.5341 23.6449L15.6931 24.7686L6.45304 27.8618C6.45268 27.8619 6.34229 27.9052 6.33725 27.9075C6.33643 27.9079 6.33573 27.9082 6.33491 27.9086C6.14682 27.9948 5.99085 28.1265 5.87577 28.286L0.96539 35.0523C0.825703 35.2447 0.733711 35.4717 0.72293 35.7092C0.700664 36.2001 0.977695 36.6351 1.40121 36.8312L5.6537 38.8005C5.65347 38.8091 5.65335 38.8176 5.65335 38.8262V51.1613C5.65335 51.6275 5.92979 52.0494 6.35718 52.2355L26.008 60.7915C26.008 60.7915 26.0101 60.7926 26.0139 60.7945C26.3077 60.9425 26.6553 60.9421 26.9488 60.794L26.949 60.7939L46.6053 52.2355C47.0328 52.0494 47.3091 51.6275 47.3091 51.1613V38.8496L51.5713 36.8264C51.9906 36.6274 52.2629 36.1935 52.2394 35.7055C52.228 35.4694 52.1364 35.2441 51.9975 35.0528ZM37.7158 21.8945L27.6528 27.1317V15.7014L37.7158 10.4642V21.8945ZM26.4812 3.39779L36.3495 8.53375L26.4812 13.6696L16.6128 8.53375L26.4812 3.39779ZM15.2465 10.4642L25.3095 15.7014V27.1317L15.2465 21.8945V10.4642ZM25.9402 30.1015C25.9402 30.1015 25.9403 30.1015 25.9405 30.1016C26.2812 30.2677 26.6811 30.2677 27.0219 30.1016C27.022 30.1015 27.022 30.1015 27.022 30.1015L34.3797 26.2723L42.9085 29.1273L26.4812 36.4384L10.0537 29.1274L18.5825 26.2724L25.9402 30.1015ZM7.21557 30.429L24.6203 38.175L20.6442 43.1604L3.67816 35.3033L7.21557 30.429ZM7.99639 39.8854L20.4942 45.6732C20.6524 45.7464 20.8201 45.7817 20.986 45.7817C21.3342 45.7817 21.6745 45.6264 21.9024 45.3406L25.3095 41.0687V57.9317L7.99639 50.3935V39.8854ZM41.2821 39.1167C40.6976 39.3942 40.4486 40.093 40.7261 40.6775C41.0035 41.262 41.7024 41.5108 42.2869 41.2336L44.9658 39.962V50.3935L27.6527 57.9317V41.0687L31.0598 45.3406C31.2911 45.6307 31.6321 45.7817 31.9764 45.7817C32.2325 45.7817 32.4904 45.698 32.7063 45.526C33.2122 45.1225 33.2951 44.3854 32.8917 43.8795L28.342 38.175L45.7467 30.429L49.2921 35.3144L41.2821 39.1167Z" fill="white"/>
<path d="M37.0128 43.5947C36.529 43.5947 36.0883 43.2863 35.9172 42.8352C35.7426 42.3746 35.8848 41.8364 36.2642 41.5219C36.6268 41.2214 37.1493 41.1683 37.5647 41.3896C38.0018 41.6223 38.2499 42.1255 38.168 42.6138C38.0744 43.1716 37.58 43.5947 37.0128 43.5947Z" fill="white"/>
</svg>
