<svg width="100" height="20" viewBox="0 0 100 20" fill="none" xmlns="http://www.w3.org/2000/svg">
<g clip-path="url(#clip0_31_479)">
<path fill-rule="evenodd" clip-rule="evenodd" d="M62.5051 6.11041C64.8779 6.11041 66.2559 7.08138 66.2559 8.84053H63.6212C63.6212 8.21753 63.1853 7.88803 62.47 7.88803C61.8943 7.88803 61.5103 8.1815 61.5103 8.6024C61.5103 9.00571 61.7545 9.2623 62.4347 9.44506L64.2144 9.95822C65.5405 10.3246 66.343 11.1673 66.343 12.5047C66.343 14.3368 64.8945 15.4176 62.6615 15.4176C60.2719 15.4176 58.6847 14.2445 58.6847 12.5222H61.3363C61.3363 13.1268 61.8943 13.5486 62.7143 13.5486C63.29 13.5486 63.6914 13.2551 63.6914 12.7428C63.6914 12.3395 63.5 12.1014 62.7845 11.9186L61.0225 11.4608C59.6787 11.1128 58.9115 10.2148 58.9115 8.87743C58.9115 7.20966 60.3423 6.11041 62.5051 6.11041ZM71.4675 6.11041C74.0846 6.11041 75.8643 7.81422 75.8643 10.3062C75.8643 10.7631 75.8466 11.0382 75.794 11.5328H69.5832C69.636 12.6875 70.368 13.3105 71.5545 13.3105C72.3745 13.3105 72.8983 13.0723 73.1249 12.5222H75.7421C75.4802 14.263 73.7884 15.4176 71.5554 15.4176C68.6939 15.4176 66.9319 13.7138 66.9319 10.764C66.9319 7.86869 68.729 6.11041 71.4675 6.11041ZM96.1627 6.11041C98.5355 6.11041 99.9135 7.08138 99.9135 8.84053H97.2788C97.2788 8.21753 96.8429 7.88803 96.1276 7.88803C95.5519 7.88803 95.1679 8.1815 95.1679 8.6024C95.1679 9.00571 95.4121 9.2623 96.0925 9.44506L97.872 9.95822C99.1983 10.3246 100.001 11.1673 100.001 12.5047C100.001 14.3368 98.5524 15.4176 96.3191 15.4176C93.9303 15.4176 92.3423 14.2445 92.3423 12.5222H94.9939C94.9939 13.1268 95.5519 13.5486 96.3719 13.5486C96.9476 13.5486 97.349 13.2551 97.349 12.7428C97.349 12.3395 97.1576 12.1014 96.4421 11.9186L94.6801 11.4608C93.3363 11.1128 92.5691 10.2148 92.5691 8.87743C92.5691 7.20966 93.9999 6.11041 96.1627 6.11041ZM80.5499 6.10934C81.7715 6.10934 82.7304 6.71388 83.1846 7.61191V6.34747H85.8362V15.1784H83.1846V13.9332C82.7313 14.8128 81.6845 15.4174 80.5157 15.4174C78.0031 15.4174 76.5549 13.4201 76.5549 10.7629C76.5549 8.12419 78.1077 6.10934 80.5499 6.10934ZM57.881 2.32812V15.1637H55.2294V13.9177C54.7761 14.7973 53.7293 15.4018 52.5605 15.4018C50.0479 15.4018 48.6005 13.4045 48.6005 10.7483C48.6005 8.10954 50.1534 6.0947 52.5956 6.0947C53.8172 6.0947 54.7761 6.69923 55.2303 7.59726V3.28832L57.881 2.32812ZM90.5929 3.23503V6.34767H92.067V8.5646H90.5929V15.1785H87.9239V8.5646H86.5978V6.34767H87.9239V4.20188L90.5929 3.23503ZM23.867 6.33173L25.7513 11.8833L27.6355 6.33173H30.6015L26.9553 15.1626H24.5474L20.9186 6.33173H23.867ZM33.95 6.33173V15.1626H31.2984V6.33173H33.95ZM37.615 6.33173L39.4992 11.8833L41.3835 6.33173H44.3495L40.7031 15.1626H38.2952L34.6665 6.33173H37.615ZM47.6967 6.33173V15.1626H45.1288V6.33173H47.6967ZM81.2828 8.45456C80.0446 8.45456 79.2766 9.4255 79.2766 10.7629C79.2766 12.1002 80.0438 13.0897 81.2828 13.0897C82.6091 13.0905 83.2893 12.0458 83.2893 10.7629C83.2893 9.49844 82.6091 8.45456 81.2828 8.45456ZM53.3276 8.43904C52.0894 8.43904 51.3214 9.41001 51.3214 10.7474C51.3214 12.0848 52.0886 13.0742 53.3276 13.0742C54.6537 13.0751 55.3341 12.0303 55.3341 10.7474C55.3341 9.48292 54.6537 8.43904 53.3276 8.43904ZM71.4499 7.99697C70.2987 7.99697 69.6008 8.71135 69.5832 9.79216H73.2295C73.2121 8.61997 72.5845 7.99697 71.4499 7.99697Z" fill="white"/>
<path d="M17.4218 6.69434L13.7585 13.3571L3.46777 6.69434H17.4218Z" fill="#F0F0F0"/>
<path d="M3.46763 6.69457L3.46804 6.69461L3.4678 6.69446H17.4219L20.8911 0.385986L3.46716 6.69455L3.46763 6.69457Z" fill="#DDDDDD"/>
<path d="M3.4713 6.7027L3.46692 6.69434L13.7581 13.3574L10.4431 19.3861L3.4713 6.7027Z" fill="#D6D6D6"/>
<path d="M0.00012207 0.386389L20.8912 0.385742L3.46949 6.69315L0.00012207 0.386389Z" fill="#F8F8F8"/>
</g>
<defs>
<clipPath id="clip0_31_479">
<rect width="100" height="19" fill="white" transform="translate(0.00012207 0.385742)"/>
</clipPath>
</defs>
</svg>
