<svg width="106" height="18" viewBox="0 0 106 18" fill="none" xmlns="http://www.w3.org/2000/svg">
<path fill-rule="evenodd" clip-rule="evenodd" d="M13.0795 0.8757C13.079 0.796094 13.0981 0.717585 13.1351 0.647079C13.1721 0.576573 13.2259 0.516229 13.2917 0.471355C13.3575 0.426481 13.4334 0.398451 13.5126 0.38973C13.5918 0.38101 13.6719 0.391866 13.746 0.421344C15.3548 1.0564 16.7371 2.15704 17.7156 3.58214C18.7107 5.03971 19.2426 6.76323 19.2417 8.52753V8.95825L21.826 12.3265C21.8527 12.3606 21.8693 12.4014 21.8738 12.4444C21.8783 12.4874 21.8705 12.5309 21.8515 12.5697C21.8324 12.6085 21.8027 12.6411 21.7659 12.6639C21.7291 12.6866 21.6866 12.6985 21.6433 12.6982H10.7832C10.6938 12.6982 10.611 12.6561 10.5558 12.5852L9.20843 10.8295V16.7256H18.3834V13.2746C18.3834 13.1958 18.4478 13.1302 18.5267 13.1302H19.0998C19.1786 13.1302 19.2444 13.1958 19.2444 13.2746V17.1419C19.2444 17.2601 19.1975 17.3735 19.1139 17.4572C19.0304 17.5409 18.9171 17.588 18.7988 17.5884H3.91902C3.8605 17.5882 3.80259 17.5765 3.74859 17.554C3.6946 17.5315 3.64557 17.4985 3.60431 17.4571C3.56306 17.4156 3.53038 17.3664 3.50815 17.3124C3.48591 17.2583 3.47456 17.2004 3.47473 17.1419V13.2759C3.47473 13.1972 3.53782 13.1315 3.61801 13.1315H4.19111C4.26998 13.1315 4.33439 13.1972 4.33439 13.2759V16.6114C4.33439 16.6757 4.38697 16.727 4.44875 16.727H8.34877V10.8308L7.00144 12.5852C6.97464 12.6201 6.94022 12.6484 6.90081 12.668C6.8614 12.6875 6.81804 12.6979 6.77404 12.6982H1.0732C1.03003 12.6982 0.987701 12.6862 0.951067 12.6633C0.914433 12.6405 0.88497 12.6078 0.866046 12.5691C0.847122 12.5303 0.839502 12.487 0.844057 12.4441C0.848613 12.4012 0.865159 12.3605 0.891805 12.3265L3.47473 8.96088V2.46069C3.47421 2.27606 3.51012 2.09314 3.58041 1.92239C3.65069 1.75163 3.75398 1.59638 3.88435 1.46553C4.01473 1.33467 4.16964 1.23076 4.34024 1.15975C4.51083 1.08874 4.69377 1.05201 4.87858 1.05166C5.65411 1.05166 6.28506 1.68199 6.28506 2.46069V3.81063C6.26271 3.81457 6.24168 3.82114 6.21933 3.83164C5.7751 4.03898 5.36474 4.31213 5.00214 4.64187C4.94566 4.69334 4.91187 4.76506 4.90818 4.84134C4.90448 4.91763 4.93118 4.99227 4.98242 5.04895C5.08758 5.16713 5.27029 5.17501 5.38728 5.06865C5.65813 4.82214 5.95939 4.61121 6.28374 4.44095C6.92702 4.12463 7.63078 3.94998 8.34745 3.92882V0.877013C8.34656 0.796968 8.36548 0.717943 8.40253 0.646963C8.43958 0.575983 8.49361 0.515248 8.55982 0.470157C8.62603 0.425066 8.70236 0.397015 8.78204 0.388499C8.86171 0.379984 8.94226 0.391266 9.01652 0.421344C10.1207 0.861255 11.1197 1.51259 11.9557 2.34382H13.0808V0.8757H13.0795ZM12.3618 4.34246C12.2109 4.34281 12.0614 4.37288 11.9221 4.43096C11.7827 4.48904 11.6562 4.57398 11.5498 4.68094C11.4433 4.7879 11.359 4.91477 11.3017 5.0543C11.2443 5.19383 11.2151 5.34328 11.2156 5.49411V6.06928C11.2118 6.10918 11.2163 6.14943 11.229 6.18747C11.2417 6.2255 11.2621 6.26047 11.2891 6.29013C11.3161 6.3198 11.349 6.3435 11.3857 6.35972C11.4224 6.37594 11.462 6.38432 11.5022 6.38432C11.5423 6.38432 11.582 6.37594 11.6187 6.35972C11.6553 6.3435 11.6882 6.3198 11.7152 6.29013C11.7422 6.26047 11.7627 6.2255 11.7753 6.18747C11.788 6.14943 11.7926 6.10918 11.7887 6.06928V5.49411C11.7892 5.36647 11.8323 5.24264 11.9112 5.14221C11.99 5.04178 12.1002 4.97048 12.2241 4.9396C12.3481 4.90871 12.4789 4.92 12.5957 4.97167C12.7125 5.02334 12.8088 5.11246 12.8692 5.22491C12.7292 5.24135 12.6002 5.30863 12.5066 5.41397C12.413 5.5193 12.3615 5.65532 12.3618 5.79614V6.94648C12.3581 7.02406 12.3702 7.10159 12.3974 7.17436C12.4245 7.24714 12.4662 7.31366 12.5198 7.36987C12.5735 7.42609 12.638 7.47085 12.7094 7.50143C12.7809 7.53201 12.8578 7.54777 12.9356 7.54777C13.0133 7.54777 13.0903 7.53201 13.1617 7.50143C13.2332 7.47085 13.2977 7.42609 13.3514 7.36987C13.405 7.31366 13.4467 7.24714 13.4738 7.17436C13.501 7.10159 13.5131 7.02406 13.5094 6.94648V5.49411C13.5094 4.85854 12.9967 4.34378 12.3618 4.34378V4.34246ZM15.9464 4.34246C15.7953 4.34264 15.6457 4.37258 15.5062 4.43058C15.3667 4.48858 15.2401 4.5735 15.1335 4.68048C15.0269 4.78745 14.9425 4.91438 14.885 5.054C14.8276 5.19361 14.7983 5.34317 14.7988 5.49411V6.06928C14.7962 6.10859 14.8016 6.14803 14.8149 6.18515C14.8281 6.22227 14.8488 6.25628 14.8757 6.28507C14.9027 6.31385 14.9352 6.33681 14.9714 6.3525C15.0076 6.36819 15.0466 6.37629 15.0861 6.37629C15.1255 6.37629 15.1645 6.36819 15.2007 6.3525C15.2369 6.33681 15.2694 6.31385 15.2964 6.28507C15.3233 6.25628 15.344 6.22227 15.3573 6.18515C15.3705 6.14803 15.3759 6.10859 15.3733 6.06928V5.49411C15.3743 5.36691 15.4176 5.24367 15.4964 5.14373C15.5752 5.0438 15.685 4.97286 15.8085 4.94204C15.9321 4.91122 16.0623 4.92229 16.1789 4.97349C16.2954 5.02469 16.3917 5.11313 16.4524 5.22491C16.3127 5.24165 16.1839 5.30906 16.0907 5.41436C15.9974 5.51966 15.946 5.65552 15.9464 5.79614V6.94648C15.9411 7.02492 15.9519 7.10363 15.9783 7.1777C16.0047 7.25178 16.0461 7.31965 16.0998 7.37709C16.1535 7.43454 16.2185 7.48034 16.2907 7.51166C16.3629 7.54297 16.4408 7.55913 16.5195 7.55913C16.5982 7.55913 16.6761 7.54297 16.7483 7.51166C16.8204 7.48034 16.8854 7.43454 16.9392 7.37709C16.9929 7.31965 17.0343 7.25178 17.0606 7.1777C17.087 7.10363 17.0979 7.02492 17.0926 6.94648V5.49411C17.0926 4.85854 16.5799 4.34378 15.9464 4.34378V4.34246ZM4.03732 9.82363C3.99331 9.82393 3.94995 9.83425 3.91055 9.85382C3.87114 9.87339 3.83672 9.90169 3.80992 9.93656L2.42447 11.7435C2.39555 11.7816 2.42316 11.8354 2.47048 11.8354H6.35078C6.43885 11.8354 6.52297 11.7947 6.57687 11.7238L7.96363 9.91555C7.96985 9.90707 7.97364 9.89706 7.97459 9.88659C7.97554 9.87612 7.97362 9.86559 7.96902 9.85613C7.96442 9.84667 7.95733 9.83865 7.9485 9.83292C7.93968 9.82719 7.92945 9.82398 7.91894 9.82363H4.03732ZM9.59094 9.91555C9.58465 9.90698 9.58086 9.89685 9.57996 9.88627C9.57907 9.87569 9.58111 9.86506 9.58586 9.85556C9.59062 9.84606 9.5979 9.83806 9.60691 9.83242C9.61592 9.82679 9.62631 9.82375 9.63694 9.82363H18.6778C18.7672 9.82363 18.85 9.86565 18.9052 9.93656L20.292 11.7448C20.3209 11.7829 20.2933 11.8367 20.246 11.8367H11.2064C11.1625 11.8366 11.1192 11.8264 11.0798 11.8071C11.0404 11.7878 11.0059 11.7597 10.979 11.7251L9.59225 9.91555H9.59094Z" fill="white"/>
<path d="M6.85693 14.8565C6.85426 14.8172 6.85971 14.7777 6.87294 14.7406C6.88617 14.7035 6.90689 14.6695 6.93382 14.6407C6.96075 14.6119 6.99332 14.5889 7.0295 14.5732C7.06568 14.5576 7.1047 14.5495 7.14414 14.5495C7.18358 14.5495 7.2226 14.5576 7.25878 14.5732C7.29496 14.5889 7.32752 14.6119 7.35445 14.6407C7.38138 14.6695 7.4021 14.7035 7.41533 14.7406C7.42856 14.7777 7.43401 14.8172 7.43135 14.8565C7.43135 15.4907 6.91871 16.0055 6.28382 16.0055C6.13295 16.0051 5.98363 15.9751 5.84438 15.9171C5.70512 15.8591 5.57867 15.7743 5.47223 15.6675C5.3658 15.5607 5.28146 15.4339 5.22405 15.2946C5.16663 15.1552 5.13726 15.0059 5.13761 14.8552C5.13378 14.8153 5.13834 14.775 5.15099 14.737C5.16365 14.6989 5.18413 14.664 5.21111 14.6343C5.23809 14.6046 5.27098 14.5809 5.30767 14.5647C5.34436 14.5485 5.38404 14.5401 5.42416 14.5401C5.46428 14.5401 5.50396 14.5485 5.54065 14.5647C5.57733 14.5809 5.61022 14.6046 5.63721 14.6343C5.66419 14.664 5.68466 14.6989 5.69732 14.737C5.70998 14.775 5.71454 14.8153 5.71071 14.8552C5.70539 14.9336 5.71626 15.0123 5.74266 15.0864C5.76905 15.1605 5.8104 15.2283 5.86414 15.2858C5.91787 15.3432 5.98286 15.389 6.05505 15.4203C6.12725 15.4516 6.20511 15.4678 6.28382 15.4678C6.36253 15.4678 6.44039 15.4516 6.51259 15.4203C6.58478 15.389 6.64976 15.3432 6.7035 15.2858C6.75724 15.2283 6.79859 15.1605 6.82498 15.0864C6.85137 15.0123 6.86225 14.9336 6.85693 14.8552V14.8565ZM5.85399 13.7048C5.85408 13.6483 5.84301 13.5922 5.82142 13.5399C5.79983 13.4876 5.76815 13.4401 5.72817 13.4001C5.6882 13.36 5.64072 13.3282 5.58844 13.3065C5.53617 13.2848 5.48012 13.2735 5.4235 13.2734C5.36688 13.2734 5.3108 13.2844 5.25846 13.306C5.20612 13.3275 5.15854 13.3592 5.11844 13.3991C5.07835 13.4391 5.04652 13.4865 5.02477 13.5387C5.00302 13.591 4.99179 13.6469 4.9917 13.7035C4.99153 13.8177 5.03678 13.9274 5.11751 14.0083C5.19825 14.0892 5.30784 14.1347 5.42219 14.1349C5.53653 14.1351 5.64627 14.0898 5.72724 14.0092C5.80822 13.9285 5.85381 13.8191 5.85399 13.7048ZM7.14479 13.2741C7.20333 13.2711 7.26188 13.28 7.31686 13.3003C7.37184 13.3206 7.42209 13.3519 7.46454 13.3923C7.50699 13.4327 7.54076 13.4813 7.56377 13.5351C7.58678 13.589 7.59856 13.647 7.59838 13.7056C7.5982 13.7641 7.58607 13.822 7.56273 13.8757C7.53939 13.9295 7.50533 13.9779 7.46263 14.018C7.41993 14.0581 7.36949 14.0891 7.31439 14.1091C7.25929 14.1291 7.20069 14.1376 7.14216 14.1342C7.03212 14.1278 6.92871 14.0795 6.85318 13.9993C6.77766 13.9191 6.73576 13.813 6.7361 13.7029C6.73643 13.5928 6.77898 13.487 6.85499 13.4072C6.93101 13.3275 7.03471 13.2798 7.14479 13.2741ZM24.1172 11.3201C23.9765 14.3128 25.7353 15.4737 29.7234 15.4868C33.6102 15.5131 35.4702 14.364 35.4702 11.8624C35.4702 9.1061 33.1147 8.81064 31.0694 8.55326C30.7316 8.51124 30.4029 8.47053 30.094 8.41932L28.9715 8.2381C28.3682 8.16325 28.3721 7.83627 28.3734 7.74435V7.73516C28.3734 7.47778 28.6665 7.20726 29.6603 7.20726C30.8328 7.20726 31.3296 7.52899 31.4309 8.07133H35.1639C35.2809 4.70436 33.0122 3.93091 29.7483 3.93091C26.0797 3.93091 24.3459 5.30973 24.3459 7.51586C24.3459 10.2722 26.5713 10.5755 28.4957 10.8382C28.6968 10.8644 28.8953 10.8907 29.0872 10.9209L30.5015 11.1402C31.3323 11.2361 31.3112 11.5565 31.3047 11.6615V11.6812C31.3047 11.9531 30.8709 12.2236 29.7234 12.1973C28.3471 12.1842 27.8765 11.8624 27.8765 11.3201H24.1172ZM41.9453 15.4868C38.249 15.4868 35.8277 13.2163 35.8277 9.70885C35.8277 6.18824 38.249 3.93091 41.9453 3.93091C44.7359 3.93091 47.5896 5.15609 47.8328 9.14156H43.8565C43.6646 8.08315 42.989 7.5802 41.9453 7.5802C40.874 7.5802 39.9959 8.3681 39.9959 9.70753C39.9959 11.0496 40.874 11.8362 41.9453 11.8362C42.9903 11.8362 43.6646 11.3201 43.8565 10.2381H47.8328C47.5896 14.2485 44.7608 15.4868 41.944 15.4868H41.9453Z" fill="white"/>
<path fill-rule="evenodd" clip-rule="evenodd" d="M55.9873 13.9519L56.3317 15.1259H60.651L56.8535 4.29224H50.991L47.1948 15.1259H51.5142L51.8717 13.9519H55.9873ZM54.2798 8.25275L55.0566 10.8436H52.8036L53.5792 8.25144H54.2811L54.2798 8.25275ZM100.648 12.6112L101.896 15.1259H106L104.19 11.6565C104.993 11.0117 105.579 10.0058 105.579 8.59943C105.579 5.53055 103.809 4.29224 100.775 4.29224H94.3026V15.1259H98.4958V12.6112H100.648ZM101.374 8.63882C101.374 9.14177 101.094 9.47662 100.457 9.47662H98.4945V7.79971H100.457C101.094 7.79971 101.374 8.13588 101.374 8.63882Z" fill="white"/>
<path d="M70.4754 4.29224V7.81284H66.7292V15.1259H62.5492V7.81284H58.803V4.29224H70.4754ZM82.7801 7.81284V4.29224H71.1077V7.81284H74.8539V15.1259H79.0339V7.81284H82.7801ZM83.4755 4.29224H93.543V7.65789H87.6673V8.38013H93.313V11.0498H87.6686V11.7589H93.543V15.1259H83.4755V4.29224Z" fill="white"/>
</svg>
