<svg width="69" height="61" viewBox="0 0 69 61" fill="none" xmlns="http://www.w3.org/2000/svg">
<path d="M34.3498 23.4729C30.2516 23.4729 26.9175 26.807 26.9175 30.9053C26.9175 35.0035 30.2516 38.3376 34.3498 38.3376C38.4481 38.3376 41.7822 35.0035 41.7822 30.9053C41.7822 26.807 38.4481 23.4729 34.3498 23.4729ZM34.3498 35.6892C31.712 35.6892 29.5659 33.5431 29.5659 30.9053C29.5659 28.2674 31.712 26.1214 34.3498 26.1214C36.9877 26.1214 39.1337 28.2674 39.1337 30.9053C39.1337 33.5431 36.9877 35.6892 34.3498 35.6892Z" fill="#FFFAFA"/>
<path d="M51.1494 25.0697L47.8036 19.2745C47.4779 18.7101 46.7895 18.4667 46.1817 18.7005L44.38 19.3931C42.892 18.0966 41.1622 17.0965 39.3041 16.4584L39.0038 14.5564C38.9021 13.9128 38.3473 13.4387 37.6957 13.4387H31.0041C30.3524 13.4387 29.7977 13.9128 29.696 14.5564L29.3957 16.4584C27.5374 17.0965 25.8078 18.0966 24.3197 19.3931L22.518 18.7005C21.9102 18.4668 21.2219 18.7102 20.8961 19.2745L17.5503 25.0697C17.2244 25.6341 17.3577 26.3515 17.8643 26.7612L19.3621 27.9729C19.1748 28.9358 19.0801 29.9186 19.0801 30.9054C19.0801 31.8922 19.1748 32.8751 19.3621 33.8379L17.8643 35.0496C17.3577 35.4594 17.2244 36.1769 17.5503 36.7412L20.8961 42.5364C21.2219 43.1008 21.9102 43.3443 22.518 43.1103L24.3197 42.4177C25.8077 43.7143 27.5373 44.7142 29.3957 45.3525L29.696 47.2545C29.7977 47.898 30.3524 48.3721 31.0041 48.3721H37.6957C38.3473 48.3721 38.9021 47.898 39.0038 47.2545L39.3041 45.3525C41.1624 44.7142 42.8921 43.7143 44.38 42.4177L46.1817 43.1103C46.7897 43.3442 47.478 43.1008 47.8036 42.5364L51.1494 36.7412C51.4753 36.1768 51.3421 35.4593 50.8355 35.0496L49.3376 33.8379C49.525 32.8748 49.6197 31.892 49.6197 30.9054C49.6197 29.9189 49.525 28.9362 49.3376 27.9729L50.8355 26.7612C51.3421 26.3514 51.4753 25.6339 51.1494 25.0697ZM46.5827 27.7861C46.8405 28.801 46.9714 29.8505 46.9714 30.9054C46.9714 31.9603 46.8407 33.0099 46.5827 34.0248C46.4554 34.5257 46.6314 35.0552 47.0333 35.3802L48.29 36.397L46.0758 40.2322L44.5627 39.6506C44.0798 39.4651 43.5331 39.5775 43.1628 39.9389C41.6517 41.4136 39.7857 42.4923 37.7665 43.0588C37.2681 43.1986 36.897 43.6159 36.8161 44.1272L36.5641 45.7238H32.1356L31.8836 44.1272C31.8029 43.6159 31.4317 43.1985 30.9332 43.0588C28.9141 42.4924 27.048 41.4136 25.5369 39.9389C25.1665 39.5775 24.6199 39.4648 24.1369 39.6506L22.624 40.2322L20.4097 36.397L21.6664 35.3802C22.0685 35.055 22.2443 34.5257 22.1169 34.0246C21.8592 33.0103 21.7284 31.9608 21.7284 30.9054C21.7284 29.85 21.8591 28.8006 22.1169 27.7862C22.2443 27.2851 22.0685 26.7558 21.6664 26.4306L20.4097 25.4138L22.624 21.5786L24.1369 22.1602C24.62 22.3459 25.1665 22.2334 25.5368 21.8719C27.0481 20.3973 28.9142 19.3186 30.9332 18.7521C31.4317 18.6122 31.8027 18.195 31.8836 17.6837L32.1356 16.087H36.5641L36.8161 17.6837C36.8969 18.195 37.2681 18.6123 37.7665 18.7521C39.7854 19.3184 41.6515 20.3973 43.1629 21.8719C43.5331 22.2333 44.0796 22.3457 44.5627 22.1602L46.0758 21.5786L48.29 25.4138L47.0333 26.4306C46.6314 26.7557 46.4554 27.2851 46.5827 27.7861Z" fill="#FFFAFA"/>
<path d="M34.3499 7.02468C35.0812 7.02468 35.6741 6.4318 35.6741 5.70045C35.6741 4.9691 35.0812 4.37622 34.3499 4.37622C33.6185 4.37622 33.0256 4.9691 33.0256 5.70045C33.0256 6.4318 33.6185 7.02468 34.3499 7.02468Z" fill="#FFFAFA"/>
<path d="M63.4546 26.1099C63.0555 26.1099 62.668 26.1597 62.2971 26.252L52.3526 9.02746C52.6179 8.75242 52.8558 8.44321 53.0553 8.09759C54.3774 5.8076 53.59 2.86887 51.3001 1.54676C49.0102 0.224918 46.0715 1.01217 44.7494 3.30216C44.5498 3.64778 44.3991 4.00824 44.2937 4.37558H40.309C39.5776 4.37558 38.9847 4.96843 38.9847 5.69981C38.9847 6.43118 39.5776 7.02403 40.309 7.02403H44.2969C44.6281 8.17638 45.3866 9.20742 46.5045 9.85285C47.2579 10.2879 48.0811 10.4944 48.8942 10.4944C49.2878 10.4944 49.6784 10.4445 50.0581 10.3501L60.0053 27.5791C59.1729 28.4421 58.6593 29.6144 58.6593 30.9053C58.6593 32.1961 59.1729 33.3686 60.0053 34.2315L50.0583 51.4602C48.8947 51.1707 47.6225 51.3123 46.5046 51.9577C45.3867 52.6032 44.6282 53.6342 44.297 54.7865H24.4029C24.0717 53.6342 23.3132 52.6032 22.1952 51.9577C21.0773 51.3123 19.8051 51.1709 18.6416 51.4602L8.69461 34.2316C9.52702 33.3686 10.0406 32.1961 10.0406 30.9053C10.0406 29.6144 9.52702 28.442 8.69461 27.5791L18.6418 10.3501C19.0213 10.4445 19.4121 10.4944 19.8057 10.4944C20.6186 10.4944 21.4422 10.2877 22.1954 9.85285C23.3133 9.20742 24.0718 8.17638 24.403 7.02403H28.3909C29.1223 7.02403 29.7151 6.43118 29.7151 5.69981C29.7151 4.96843 29.1223 4.37558 28.3909 4.37558H24.4063C24.3008 4.00824 24.1501 3.64765 23.9506 3.30216C22.6285 1.0123 19.6899 0.224521 17.3998 1.54689C15.1098 2.869 14.3224 5.8076 15.6446 8.09772C15.8441 8.44321 16.082 8.75255 16.3473 9.02759L6.40277 26.252C6.03186 26.1597 5.64426 26.1099 5.24527 26.1099C2.60092 26.1099 0.449707 28.2611 0.449707 30.9053C0.449707 33.5495 2.60092 35.7007 5.24513 35.7007C5.64426 35.7007 6.03172 35.6509 6.40264 35.5586L16.3463 52.7815C16.0809 53.0566 15.844 53.3674 15.6444 53.713C14.3223 56.003 15.1097 58.9417 17.3997 60.2638C18.153 60.6988 18.9762 60.9053 19.7893 60.9053C21.4477 60.9053 23.0633 60.0451 23.9504 58.5084C24.1499 58.1628 24.3006 57.8023 24.406 57.435H44.2933C44.3988 57.8023 44.5495 58.1629 44.749 58.5084C45.6362 60.0452 47.2514 60.9053 48.9101 60.9053C49.7232 60.9053 50.5464 60.6987 51.2997 60.2638C53.5895 58.9417 54.377 56.003 53.0549 53.713C52.8554 53.3674 52.6185 53.0567 52.3531 52.7815L62.2967 35.5586C62.6676 35.6509 63.0552 35.7007 63.4542 35.7007C66.0988 35.7009 68.2502 33.5496 68.2502 30.9053C68.2502 28.2609 66.0988 26.1099 63.4546 26.1099ZM47.8287 7.55929C46.8035 6.96736 46.4509 5.6516 47.0428 4.62639C47.4401 3.93832 48.1632 3.55323 48.9058 3.55323C49.2699 3.55323 49.6385 3.64566 49.9758 3.84046C51.0009 4.43239 51.3535 5.74814 50.7616 6.77336C50.1697 7.79871 48.8542 8.15122 47.8287 7.55929ZM18.7241 3.84046C19.7493 3.24866 21.065 3.60117 21.6569 4.62639C22.2489 5.6516 21.8964 6.96736 20.871 7.55929C19.8457 8.15122 18.5299 7.79871 17.9381 6.77336C17.3462 5.74814 17.6987 4.43239 18.7241 3.84046ZM3.09816 30.9053C3.09816 29.7214 4.06127 28.7583 5.24513 28.7583C6.42899 28.7583 7.39224 29.7214 7.39224 30.9053C7.39224 32.0892 6.42912 33.0523 5.24527 33.0523C4.06141 33.0523 3.09816 32.0892 3.09816 30.9053ZM21.6569 57.1843C21.065 58.2095 19.7493 58.5623 18.7241 57.9703C17.6988 57.3782 17.3462 56.0626 17.9381 55.0374C18.5302 54.0121 19.8458 53.6596 20.871 54.2514C21.8964 54.8434 22.2489 56.159 21.6569 57.1843ZM49.9758 57.9701C48.9505 58.5621 47.6347 58.2095 47.0428 57.1842C46.4509 56.159 46.8034 54.8432 47.8287 54.2513C48.166 54.0566 48.5347 53.9641 48.8987 53.9641C49.6412 53.9641 50.3645 54.3492 50.7618 55.0372C51.3535 56.0626 51.001 57.3782 49.9758 57.9701ZM63.4546 33.0524C62.2708 33.0524 61.3076 32.0893 61.3076 30.9054C61.3076 29.7216 62.2708 28.7585 63.4546 28.7585C64.6385 28.7585 65.6017 29.7216 65.6017 30.9054C65.6017 32.0893 64.6386 33.0524 63.4546 33.0524Z" fill="#FFFAFA"/>
</svg>
