<svg width="61" height="61" viewBox="0 0 61 61" fill="none" xmlns="http://www.w3.org/2000/svg">
<path d="M46.9463 25.9834H50.6526C52.8902 25.9834 54.7104 24.163 54.7104 21.9255V15.4365H57.2588C59.1973 15.4365 60.7744 13.8594 60.7744 11.9209V4.4209C60.7744 2.48238 59.1973 0.905273 57.2588 0.905273H49.7588C47.8203 0.905273 46.2432 2.48238 46.2432 4.4209V11.9209C46.2432 13.8594 47.8203 15.4365 49.7588 15.4365H52.3667V21.9255C52.3667 22.8707 51.5977 23.6396 50.6526 23.6396H46.8038C46.3919 22.2848 45.1312 21.2959 43.6435 21.2959H31.9612V15.4365H34.5244C36.4629 15.4365 38.04 13.8594 38.04 11.9209V4.4209C38.04 2.48238 36.4629 0.905273 34.5244 0.905273H27.0244C25.0859 0.905273 23.5088 2.48238 23.5088 4.4209V11.9209C23.5088 13.8594 25.0859 15.4365 27.0244 15.4365H29.6174V21.2959H17.9054C16.4177 21.2959 15.157 22.2848 14.745 23.6396H10.926C9.9809 23.6396 9.21191 22.8707 9.21191 21.9255V15.4365H11.79C13.7286 15.4365 15.3057 13.8594 15.3057 11.9209V4.4209C15.3057 2.48238 13.7286 0.905273 11.79 0.905273H4.29004C2.35152 0.905273 0.774414 2.48238 0.774414 4.4209V11.9209C0.774414 13.8594 2.35152 15.4365 4.29004 15.4365H6.86816V21.9255C6.86816 24.163 8.68844 25.9834 10.926 25.9834H14.6025V35.8271H10.926C8.68844 35.8271 6.86816 37.6475 6.86816 39.885V46.374H4.29004C2.35152 46.374 0.774414 47.9511 0.774414 49.8896V57.3896C0.774414 59.3282 2.35152 60.9053 4.29004 60.9053H11.79C13.7286 60.9053 15.3057 59.3282 15.3057 57.3896V49.8896C15.3057 47.9511 13.7286 46.374 11.79 46.374H9.21191V39.885C9.21191 38.9399 9.9809 38.1709 10.926 38.1709H14.745C15.157 39.5257 16.4177 40.5146 17.9054 40.5146H29.6174V46.374H27.0244C25.0859 46.374 23.5088 47.9511 23.5088 49.8896V57.3896C23.5088 59.3282 25.0859 60.9053 27.0244 60.9053H34.5244C36.4629 60.9053 38.04 59.3282 38.04 57.3896V49.8896C38.04 47.9511 36.4629 46.374 34.5244 46.374H31.9612V40.5146H43.6435C45.1312 40.5146 46.3919 39.5257 46.8038 38.1709H50.6526C51.5977 38.1709 52.3667 38.9399 52.3667 39.885V46.374H49.7588C47.8203 46.374 46.2432 47.9511 46.2432 49.8896V57.3896C46.2432 59.3282 47.8203 60.9053 49.7588 60.9053H57.2588C59.1973 60.9053 60.7744 59.3282 60.7744 57.3896V49.8896C60.7744 47.9511 59.1973 46.374 57.2588 46.374H54.7104V39.885C54.7104 37.6475 52.8902 35.8271 50.6526 35.8271H46.9463V25.9834ZM48.5869 11.9209V4.4209C48.5869 3.77473 49.1126 3.24902 49.7588 3.24902H57.2588C57.905 3.24902 58.4307 3.77473 58.4307 4.4209V11.9209C58.4307 12.5671 57.905 13.0928 57.2588 13.0928H49.7588C49.1126 13.0928 48.5869 12.5671 48.5869 11.9209ZM25.8525 11.9209V4.4209C25.8525 3.77473 26.3782 3.24902 27.0244 3.24902H34.5244C35.1706 3.24902 35.6963 3.77473 35.6963 4.4209V11.9209C35.6963 12.5671 35.1706 13.0928 34.5244 13.0928H27.0244C26.3782 13.0928 25.8525 12.5671 25.8525 11.9209ZM3.11816 11.9209V4.4209C3.11816 3.77473 3.64387 3.24902 4.29004 3.24902H11.79C12.4362 3.24902 12.9619 3.77473 12.9619 4.4209V11.9209C12.9619 12.5671 12.4362 13.0928 11.79 13.0928H4.29004C3.64387 13.0928 3.11816 12.5671 3.11816 11.9209ZM12.9619 49.8896V57.3896C12.9619 58.0358 12.4362 58.5615 11.79 58.5615H4.29004C3.64387 58.5615 3.11816 58.0358 3.11816 57.3896V49.8896C3.11816 49.2435 3.64387 48.7178 4.29004 48.7178H11.79C12.4362 48.7178 12.9619 49.2435 12.9619 49.8896ZM35.6963 49.8896V57.3896C35.6963 58.0358 35.1706 58.5615 34.5244 58.5615H27.0244C26.3782 58.5615 25.8525 58.0358 25.8525 57.3896V49.8896C25.8525 49.2435 26.3782 48.7178 27.0244 48.7178H34.5244C35.1706 48.7178 35.6963 49.2435 35.6963 49.8896ZM58.4307 49.8896V57.3896C58.4307 58.0358 57.905 58.5615 57.2588 58.5615H49.7588C49.1126 58.5615 48.5869 58.0358 48.5869 57.3896V49.8896C48.5869 49.2435 49.1126 48.7178 49.7588 48.7178H57.2588C57.905 48.7178 58.4307 49.2435 58.4307 49.8896ZM43.6435 38.1709H17.9054C17.3765 38.1709 16.9463 37.7407 16.9463 37.2118V24.5987C16.9463 24.07 17.3765 23.6396 17.9054 23.6396H43.6436C44.1725 23.6396 44.6027 24.0698 44.6027 24.5987V25.9834H38.3136C37.6664 25.9834 37.1417 26.508 37.1417 27.1553C37.1417 27.8025 37.6664 28.3271 38.3136 28.3271H44.6025V37.2118C44.6025 37.7407 44.1723 38.1709 43.6435 38.1709Z" fill="white"/>
<path d="M33.6257 25.9834C33.3175 25.9834 33.0152 26.1088 32.7972 26.3268C32.5793 26.5447 32.4539 26.8471 32.4539 27.1553C32.4539 27.4635 32.5791 27.7658 32.7972 27.9838C33.0153 28.2018 33.3175 28.3271 33.6257 28.3271C33.9339 28.3271 34.2363 28.2018 34.4541 27.9838C34.6733 27.7658 34.7976 27.4635 34.7976 27.1553C34.7976 26.8471 34.6733 26.5447 34.4541 26.3268C34.2363 26.1088 33.9339 25.9834 33.6257 25.9834Z" fill="white"/>
</svg>
